<?xml version="1.0" encoding="UTF-8"?>
<svg width="82px" height="39px" viewBox="0 0 82 39" version="1.1" xmlns="http://www.w3.org/2000/svg" xmlns:xlink="http://www.w3.org/1999/xlink">
    <!-- Generator: Sketch 45.2 (43514) - http://www.bohemiancoding.com/sketch -->
    <title>icono-ciudad</title>
    <desc>Created with Sketch.</desc>
    <defs></defs>
    <g id="Responsive" stroke="none" stroke-width="1" fill="none" fill-rule="evenodd">
        <g id="Mobile--Responsive" transform="translate(-24.000000, -275.000000)" fill-rule="nonzero">
            <g id="body--index" transform="translate(0.000000, 144.000000)">
                <g id="icono-ciudad" transform="translate(24.000000, 131.000000)">
                    <path d="M7.64007095,22.9202128 C7.64007095,25.0848996 8.27674353,27.1222519 9.42275417,28.6502661 C9.16808514,28.5229315 8.91341611,28.2682625 8.78608159,28.140928 C7.2580674,26.4855793 6.36672579,24.193558 6.36672579,21.6468677 C6.36672579,16.044149 10.9507684,11.4601064 16.5534871,11.4601064 C19.1001774,11.4601064 21.3921987,12.351448 23.0475474,13.8794622 C23.1748819,14.1341313 23.4295509,14.2614658 23.5568854,14.5161348 C22.0288712,13.3701242 19.991519,12.7334516 17.8268322,12.7334516 C12.2241135,12.7334516 7.64007095,17.3174941 7.64007095,22.9202128 Z" id="Shape" fill="#1D9AAE"></path>
                    <path d="M50.9338063,21.6468677 C50.9338063,13.8794622 57.1731976,7.64007095 64.9406031,7.64007095 C72.7080085,7.64007095 78.9473998,13.8794622 78.9473998,21.6468677 C78.9473998,29.4142731 72.7080085,35.6536644 64.9406031,35.6536644 C57.1731976,35.6536644 50.9338063,29.4142731 50.9338063,21.6468677 Z M52.2071515,21.6468677 C52.2071515,28.6502661 57.9372047,34.3803193 64.9406031,34.3803193 C71.9440014,34.3803193 77.6740546,28.6502661 77.6740546,21.6468677 C77.6740546,14.6434693 71.9440014,8.91341611 64.9406031,8.91341611 C57.9372047,8.91341611 52.2071515,14.6434693 52.2071515,21.6468677 Z" id="Shape" fill="#996632"></path>
                    <rect id="Rectangle-path" fill="#B37D4D" x="35.6536644" y="12.7334516" width="10.1867613" height="2.54669032"></rect>
                    <rect id="Rectangle-path" fill="#996632" x="36.1311689" y="1.75084959" width="9.2317524" height="2.86502661"></rect>
                    <path d="M45.7608416,6.86014704 L45.7449248,6.86014704 C45.4265885,6.79647978 45.3629213,6.55772756 45.3629213,6.36672579 L45.3629213,5.57088507 L36.1311689,5.57088507 L36.1311689,6.36672579 C36.1311689,6.55772756 36.0675016,6.79647978 35.7491653,6.86014704 L35.7332485,6.86014704 L26.2786607,9.26358602 L27.3291705,10.2504285 C29.3346891,12.1445294 30.8149528,14.5161348 31.6903776,17.2856605 C32.1042148,18.7818411 32.2952166,20.2143544 32.2952166,21.6468677 L32.2952166,22.4427084 L49.1670399,22.4427084 L49.1670399,21.6468677 C49.1670399,20.2143544 49.3580417,18.7818411 49.7718789,17.2856605 C50.6632205,14.5161348 52.1275674,12.1445294 54.133086,10.2504285 L55.1835958,9.26358602 L45.7608416,6.86014704 Z M47.1137708,17.0309915 L34.3803193,17.0309915 C34.2052343,17.0309915 33.9823989,16.9673242 33.9028148,16.6967384 L33.9028148,11.4601064 C33.9028148,11.2691046 34.1893175,10.982602 34.3803193,10.982602 L47.1137708,10.982602 C47.3047726,10.982602 47.5912753,11.2691046 47.5912753,11.4601064 L47.5912753,16.6967384 C47.5116912,16.9673242 47.2888558,17.0309915 47.1137708,17.0309915 Z" id="Shape" fill="#FFF8EF"></path>
                    <g id="Group" transform="translate(8.595080, 13.688460)" fill="#6CD3D8">
                        <path d="M16.8718233,6.68506208 C16.8718233,6.43039305 16.8718233,6.0483895 16.8718233,5.79372047 C16.8718233,6.0483895 16.8718233,6.43039305 16.8718233,6.68506208 Z" id="Shape"></path>
                        <path d="M16.2351508,3.24703015 C16.2351508,3.37436467 16.5333567,3.6290337 16.5333567,3.75636822 C16.5333567,3.50169918 16.5333567,3.37436467 16.2351508,3.24703015 Z" id="Shape"></path>
                        <path d="M16.3532391,3.11969564 C16.3532391,2.86502661 16.1668604,2.73769209 15.9804817,2.48302306 C16.1668604,2.73769209 16.1668604,2.86502661 16.3532391,3.11969564 Z" id="Shape"></path>
                        <path d="M5.79372047,16.8718233 C6.0483895,16.8718233 6.43039305,16.8718233 6.68506208,16.8718233 C6.43039305,16.8718233 6.0483895,16.8718233 5.79372047,16.8718233 Z" id="Shape"></path>
                        <path d="M2.61035757,15.9804817 C2.73769209,16.1668604 2.99236112,16.1668604 3.11969564,16.3532391 C2.86502661,16.1668604 2.73769209,16.1668604 2.61035757,15.9804817 Z" id="Shape"></path>
                        <path d="M4.90237886,17.6358304 C3.88370273,17.3811614 2.99236112,16.8718233 2.22835403,16.3624853 C2.10101951,16.3624853 2.10101951,16.2351508 1.97368499,16.1078162 C1.59168145,15.8531472 1.08234338,15.4711437 0.700339837,15.0891401 L0.573005321,14.9618056 C0.445670805,14.8344711 0.191001774,14.5798021 0.0636672579,14.4524675 C0.318336289,14.5798021 0.445670805,14.8344711 0.700339837,14.9618056 C1.2096779,15.3438092 1.84635048,15.5984782 2.35568854,15.9804817 C2.48302306,16.1078162 2.73769209,16.1078162 2.86502661,16.2351508 C3.11969564,16.3624853 3.24703015,16.3624853 3.50169918,16.4898198 C3.6290337,16.4898198 3.88370273,16.6171543 4.01103725,16.6171543 C4.26570628,16.6171543 4.52037531,16.7444888 4.77504434,16.7444888 L4.90237886,16.7444888 C5.15704789,16.7444888 5.41171692,16.7444888 5.66638595,16.8718233 C5.92105498,16.8718233 6.30305853,16.8718233 6.55772756,16.8718233 C12.1604463,16.8718233 16.7444888,12.2877808 16.7444888,6.68506208 C16.7444888,6.43039305 16.7444888,6.0483895 16.7444888,5.79372047 C16.7444888,5.53905144 16.7444888,5.28438241 16.6171543,5.15704789 C16.6171543,5.15704789 16.6171543,5.15704789 16.6171543,5.02971337 L16.6171543,5.02971337 C16.6171543,4.90237886 16.6171543,4.77504434 16.6171543,4.64770983 C16.6171543,4.52037531 16.6171543,4.39304079 16.4898198,4.13837176 C16.4898198,4.01103725 16.3624853,3.88370273 16.3624853,3.75636822 C16.3624853,3.6290337 16.2351508,3.37436467 16.2351508,3.24703015 L16.2351508,3.11969564 C16.1078162,2.86502661 16.1078162,2.73769209 15.9804817,2.48302306 C15.9804817,2.48302306 15.9804817,2.35568854 15.8531472,2.22835403 L15.8531472,2.10101951 C15.5984782,1.59168145 15.3438092,1.08234338 15.0891401,0.700339837 C14.9618056,0.445670805 14.7071366,0.191001774 14.5798021,0.0636672579 C15.2164746,0.573005321 15.8531472,1.2096779 16.2351508,1.97368499 C16.3624853,2.10101951 16.3624853,2.10101951 16.3624853,2.22835403 C16.7444888,2.73769209 16.9991579,3.24703015 17.2538269,3.88370273 C17.2538269,3.88370273 17.2538269,3.88370273 17.2538269,4.01103725 C17.3811614,4.26570628 17.5084959,4.64770983 17.6358304,4.90237886 C17.6358304,5.02971337 17.763165,5.15704789 17.763165,5.28438241 C18.017834,6.0483895 18.1451685,6.93973111 18.1451685,7.83107272 C18.1451685,13.4337914 13.5611259,18.017834 7.95840724,18.017834 C7.06706563,18.017834 6.17572402,17.8904995 5.41171692,17.6358304 C5.28438241,17.763165 5.15704789,17.763165 4.90237886,17.6358304 Z" id="Shape"></path>
                    </g>
                    <path d="M56.0271869,22.9202128 C56.0271869,25.0848996 56.6638595,27.1222519 57.8098702,28.6502661 C57.5552011,28.5229315 57.3005321,28.2682625 57.1731976,28.140928 C55.6451834,26.4855793 54.7538418,24.193558 54.7538418,21.6468677 C54.7538418,16.044149 59.3378844,11.4601064 64.9406031,11.4601064 C67.4872934,11.4601064 69.7793147,12.351448 71.4346634,13.8794622 C71.5619979,14.1341313 71.8166669,14.2614658 71.9440014,14.5161348 C70.4159872,13.3701242 68.378635,12.7334516 66.2139482,12.7334516 C60.6112295,12.7334516 56.0271869,17.3174941 56.0271869,22.9202128 Z" id="Shape" fill="#1D9AAE"></path>
                    <path d="M61.8845747,31.3242909 C60.8658985,31.0696219 59.9745569,30.5602838 59.2105498,30.0509457 C59.0832153,30.0509457 59.0832153,29.9236112 58.9558808,29.7962767 C58.4465427,29.5416077 58.0645392,29.1596041 57.6825357,28.7776006 L57.5552011,28.6502661 C57.4278666,28.5229315 57.1731976,28.2682625 57.0458631,28.140928 C57.3005321,28.2682625 57.4278666,28.5229315 57.6825357,28.6502661 C58.1918737,29.0322696 58.8285463,29.2869386 59.3378844,29.6689422 C59.4652189,29.7962767 59.7198879,29.7962767 59.8472224,29.9236112 C60.1018915,30.0509457 60.229226,30.0509457 60.483895,30.1782802 C60.6112295,30.1782802 60.8658985,30.3056148 60.9932331,30.3056148 C61.2479021,30.3056148 61.5025711,30.4329493 61.7572402,30.4329493 L61.8845747,30.4329493 C62.1392437,30.4329493 62.3939127,30.4329493 62.5212473,30.5602838 C62.7759163,30.5602838 63.1579198,30.5602838 63.4125889,30.5602838 C69.0153076,30.5602838 73.5993501,25.9762412 73.5993501,20.3735225 C73.5993501,20.1188535 73.5993501,19.7368499 73.5993501,19.4821809 C73.5993501,19.2275119 73.5993501,18.9728429 73.4720156,18.8455083 C73.4720156,18.8455083 73.4720156,18.8455083 73.4720156,18.7181738 L73.4720156,18.7181738 C73.4720156,18.5908393 73.4720156,18.4635048 73.4720156,18.3361703 C73.4720156,18.2088358 73.3446811,18.0815012 73.3446811,17.8268322 C73.3446811,17.6994977 73.2173466,17.5721632 73.2173466,17.4448287 C73.2173466,17.3174941 73.0900121,17.0628251 73.0900121,16.9354906 L73.0900121,16.8081561 C72.9626775,16.5534871 72.9626775,16.4261525 72.835343,16.1714835 C72.835343,16.1714835 72.835343,16.044149 72.7080085,15.9168145 C72.7080085,15.9168145 72.7080085,15.78948 72.580674,15.78948 C72.326005,15.2801419 72.0713359,14.7708038 71.8166669,14.3888003 C71.6893324,14.1341313 71.4346634,13.8794622 71.3073288,13.7521277 C71.9440014,14.2614658 72.580674,14.8981383 72.9626775,15.6621454 C73.0900121,15.78948 73.0900121,15.78948 73.2173466,15.9168145 C73.5993501,16.4261525 73.8540192,16.9354906 74.1086882,17.5721632 C74.1086882,17.5721632 74.1086882,17.5721632 74.1086882,17.6994977 C74.2360227,17.9541667 74.3633572,18.3361703 74.4906917,18.5908393 C74.4906917,18.7181738 74.6180263,18.8455083 74.6180263,18.9728429 C74.8726953,19.7368499 75.0000298,20.6281916 75.0000298,21.5195332 C75.0000298,27.1222519 70.4159872,31.7062944 64.8132685,31.7062944 C63.9219269,31.7062944 63.0305853,31.5789599 62.2665782,31.3242909 C62.2665782,31.4516254 62.1392437,31.4516254 61.8845747,31.3242909 Z" id="Shape" fill="#6CD3D8"></path>
                    <path d="M9.53417187,27.8385085 C9.58192231,27.886259 9.62967276,27.9340094 9.64558957,27.9499262 L9.70925683,27.9817598 L9.75700727,28.0295103 C9.83659135,28.0931775 9.93209223,28.1568448 10.0275931,28.2045952 L10.0435099,28.1886784 C8.99300018,26.7879988 8.41999486,24.9257315 8.41999486,22.9361297 C8.41999486,17.763165 12.6379507,13.5452091 17.8109154,13.5452091 C19.8005172,13.5452091 21.6627845,14.1182144 23.0634642,15.1687242 L23.1589651,15.0891401 C23.1112146,15.009556 23.0634642,14.9140552 22.9997969,14.8503879 L22.9679633,14.8026375 L22.9520465,14.754887 C22.8883792,14.6116357 22.6655438,14.4047171 22.5859597,14.325133 L23.5250518,13.2746233 C21.6946181,11.6033578 19.2115951,10.6801825 16.5216534,10.6801825 C10.4732639,10.6801825 5.53905144,15.614395 5.53905144,21.6627845 C5.53905144,24.3368093 6.46222668,26.8039156 8.11757538,28.6343492 L8.97708336,27.4405882 C9.26358602,27.5520059 9.42275417,27.711174 9.53417187,27.8385085 Z" id="Shape" fill="#1D9AAE"></path>
                    <path d="M27.026751,18.4635048 L27.026751,18.3998375 L26.9471669,18.2247526 C26.8994165,18.1292517 26.8357492,17.9860004 26.7879988,17.842749 C26.7402483,17.7313313 26.6924979,17.6199136 26.6606642,17.5244127 L26.6606642,17.412995 L26.596997,17.2697437 C26.3264111,16.5853207 26.0558253,16.0759826 25.7215722,15.5984782 C25.6738217,15.43931 25.6101545,15.3119755 25.48282,15.184641 C25.1008164,14.4683844 24.5118943,13.7839613 23.6683031,13.1154551 L23.5409686,13.2427896 L22.6018766,14.2932994 C22.6814606,14.3728835 22.8883792,14.5798021 22.9679633,14.7230534 L22.9838801,14.7708038 L23.0157137,14.8185543 C23.0634642,14.8981383 23.1112146,14.9777224 23.1748819,15.0573065 C23.33405,15.3278923 23.4932182,15.6462286 23.6523863,15.9645649 L23.6523863,16.2351508 L23.7956376,16.3784021 L23.8593049,16.5216534 C23.8911385,16.6012375 23.9229722,16.6489879 23.938889,16.728572 C23.9548058,16.7922393 23.9866394,16.8718233 24.018473,16.9673242 C24.018473,17.1424092 24.0821403,17.2856605 24.1139739,17.4289118 C24.1298907,17.4607455 24.1298907,17.4766623 24.1458076,17.5084959 C24.1617244,17.6994977 24.2253916,17.842749 24.2731421,17.9382499 L24.2731421,18.0019172 L24.3527261,18.1770021 C24.3845598,18.2406694 24.4004766,18.272503 24.4004766,18.272503 C24.4004766,18.2884198 24.4004766,18.3043366 24.4004766,18.3202535 L24.4004766,19.1638446 L24.5278111,19.2911791 C24.5278111,19.3548464 24.5278111,19.4185137 24.5278111,19.4662641 L24.5278111,20.3576057 C24.5278111,25.5305704 20.3098553,29.7485263 15.1368906,29.7485263 L14.4047171,29.7485263 C14.0545472,29.6211917 13.7362109,29.6211917 13.4815419,29.6211917 L13.3701242,29.6211917 C13.3382905,29.6211917 13.2427896,29.5893581 13.1791224,29.5734413 C13.0358711,29.5416077 12.8767029,29.4938572 12.6697843,29.4938572 C12.6538675,29.4938572 12.6220339,29.4779404 12.5902002,29.4620236 C12.5106162,29.43019 12.4151153,29.3983563 12.3196144,29.3824395 C12.2081967,29.3346891 12.096779,29.3028554 12.0171949,29.2710218 C11.9535277,29.255105 11.921694,29.2391882 11.8739436,29.2232714 C11.7147755,29.1118537 11.5556073,29.0641032 11.4441896,29.0163528 C11.4282728,29.0163528 11.4282728,29.0163528 11.412356,29.000436 C11.1099365,28.7776006 10.7916002,28.6025156 10.4891807,28.4274307 C10.3300126,28.3319298 10.1708444,28.2523457 10.0275931,28.1568448 C9.93209223,28.0931775 9.83659135,28.0454271 9.75700727,27.9817598 L9.70925683,27.9340094 L9.64558957,27.9021758 C9.62967276,27.886259 9.5660055,27.8385085 9.53417187,27.7907581 C9.42275417,27.6793404 9.24766921,27.5042554 9.00891699,27.3928377 L8.14940901,28.5865988 L8.08574175,28.6661829 L8.72241433,29.3028554 C9.16808514,29.7485263 9.70925683,30.1464466 10.0116763,30.3374484 C10.1390108,30.544367 10.3140958,30.6717015 10.5050976,30.7512856 C11.2054374,31.2128732 12.1286126,31.7381281 13.2268728,32.0405475 C13.386041,32.1042148 13.5770427,32.1837989 13.7998781,32.1837989 C13.8794622,32.1837989 13.9749631,32.1678821 14.070464,32.1519652 C14.8185543,32.3588838 15.6780623,32.4703015 16.5534871,32.4703015 C22.6018766,32.4703015 27.536089,27.536089 27.536089,21.4876995 C27.536089,20.5167739 27.3928377,19.5776818 27.1381687,18.7659243 C27.1222519,18.6545066 27.0585846,18.5430889 27.026751,18.4635048 Z" id="Shape" fill="#6CD3D8"></path>
                    <path d="M57.9212879,27.8385085 C57.9690383,27.886259 58.0167888,27.9340094 58.0327056,27.9499262 L58.0963728,27.9817598 L58.1441233,28.0295103 C58.2237073,28.0931775 58.3192082,28.1568448 58.4147091,28.2045952 L58.4306259,28.1886784 C57.3801162,26.7879988 56.8071109,24.9257315 56.8071109,22.9361297 C56.8071109,17.763165 61.0250667,13.5452091 66.1980314,13.5452091 C68.0921323,13.5452091 69.8748155,14.070464 71.2595784,15.0254729 C71.2277448,14.9618056 71.1799943,14.8981383 71.1481607,14.8503879 L71.1163271,14.8026375 L71.1004103,14.754887 C71.036743,14.6116357 70.8139076,14.4047171 70.7343235,14.325133 L71.7848333,13.1472888 C69.9703164,11.5556073 67.5350438,10.6801825 64.9246862,10.6801825 C58.8762967,10.6801825 53.9420843,15.614395 53.9420843,21.6627845 C53.9420843,24.3368093 54.8652595,26.8039156 56.5206082,28.6343492 L57.3801162,27.4405882 C57.650702,27.5520059 57.8098702,27.711174 57.9212879,27.8385085 Z" id="Shape" fill="#1D9AAE"></path>
                    <path d="M75.3979502,18.7977579 C75.3661165,18.6545066 75.3183661,18.5430889 75.2865325,18.4635048 L75.2865325,18.3998375 L75.2069484,18.2247526 C75.1591979,18.1292517 75.0955307,17.9860004 75.0477802,17.842749 C75.0000298,17.7313313 74.9522794,17.6199136 74.9204457,17.5244127 L74.9204457,17.412995 L74.8567785,17.2697437 C74.554359,16.5057366 74.2519395,15.9486481 73.869936,15.43931 L73.8381023,15.3915596 L73.6311838,15.184641 C73.2491802,14.4683844 72.6602581,13.7998781 71.8166669,13.1313719 L71.8166669,13.1472888 L70.7661572,14.325133 C70.8457412,14.4047171 71.0526598,14.6116357 71.1322439,14.754887 L71.1481607,14.8026375 L71.1799943,14.8503879 C71.211828,14.9140552 71.2595784,14.9618056 71.291412,15.0254729 C71.4824138,15.3438092 71.6893324,15.7576463 71.896251,16.1555667 L71.9440014,16.2351508 L71.9440014,16.2510676 L71.9599182,16.2669844 L72.1190864,16.5853207 L72.1827536,16.5853207 C72.1986705,16.6330711 72.2145873,16.6808216 72.2464209,16.7444888 C72.2623377,16.8081561 72.2941713,16.8877402 72.326005,16.983241 C72.326005,17.158326 72.3896722,17.3015773 72.4215059,17.4448287 C72.4374227,17.4766623 72.4374227,17.4925791 72.4533395,17.5244127 C72.4692563,17.7154145 72.5329236,17.8745827 72.580674,17.9700835 C72.5965908,18.1770021 72.6602581,18.3520871 72.7080085,18.447588 L72.7080085,19.1797614 L72.835343,19.307096 C72.835343,19.3707632 72.835343,19.4344305 72.835343,19.4821809 L72.835343,20.3735225 C72.835343,25.5464872 68.6173872,29.7644431 63.4444225,29.7644431 L62.7759163,29.7644431 C62.4894136,29.6371086 62.1710773,29.6371086 61.9164083,29.6371086 L61.7572402,29.6371086 C61.7254065,29.6371086 61.6299056,29.6052749 61.5662384,29.5893581 C61.4229871,29.5575245 61.2638189,29.509774 61.0569003,29.509774 C61.0409835,29.509774 61.0091499,29.4938572 60.9773163,29.4779404 C60.8977322,29.4461068 60.8022313,29.4142731 60.7067304,29.3983563 C60.5953127,29.3506059 60.483895,29.3187723 60.4043109,29.2869386 C60.3406437,29.2710218 60.30881,29.255105 60.2610596,29.2391882 C60.1018915,29.1277705 59.9427233,29.08002 59.8313056,29.0322696 C59.8153888,29.0322696 59.8153888,29.0322696 59.799472,29.0163528 C59.4970525,28.7935174 59.194633,28.6184324 58.8762967,28.4433475 C58.7171286,28.3478466 58.5579605,28.2682625 58.4147091,28.1727616 C58.3192082,28.1090944 58.2237073,28.0613439 58.1441233,27.9976767 L58.0963728,27.9499262 L58.0327056,27.9180926 C58.0167888,27.9021758 57.9531215,27.8544253 57.9212879,27.8066749 C57.8098702,27.6952572 57.6347852,27.5201722 57.396033,27.4087545 L56.536525,28.6025156 L56.4728578,28.6820997 L57.1095303,29.3187723 C57.4756171,29.684859 57.8735374,30.0827794 58.4147091,30.3851988 C58.5420436,30.5762006 58.7012118,30.7035351 58.8762967,30.7672024 C59.5766366,31.22879 60.4998118,31.7540449 61.598072,32.0564644 C61.8049906,32.1519652 61.9800756,32.1997157 62.1551605,32.1997157 C62.2347446,32.1997157 62.2984119,32.1837989 62.3620791,32.1678821 C63.1101694,32.3748006 63.9378437,32.4862183 64.7973517,32.4862183 C70.8457412,32.4862183 75.7799537,27.5520059 75.7799537,21.5036164 C75.7958705,20.5486075 75.6526192,19.6095154 75.3979502,18.7977579 Z" id="Shape" fill="#6CD3D8"></path>
                    <g id="Group" transform="translate(7.321735, 12.415115)" fill="#2FB4C2">
                        <path d="M48.387116,10.552848 C48.387116,4.75912753 53.1303267,0 58.939964,0 C61.1842348,0 63.2852543,0.652589393 64.8769358,1.84635048 C65.5772756,2.37160536 65.9911128,3.8518691 66.229865,4.63179301 C68.0602987,10.6324321 64.2720968,17.1742428 58.0963728,18.4157543 C55.3109303,18.9728429 52.4936541,18.3043366 50.2334665,16.6171543 C49.0556222,14.8981383 48.387116,12.7971188 48.387116,10.552848 Z" id="Shape"></path>
                        <path d="M0,10.552848 C0,4.75912753 4.74321071,0 10.552848,0 C12.7971188,0 14.8981383,0.652589393 16.4898198,1.84635048 C17.2379101,2.40343899 17.58808,4.07470451 17.8109154,4.91829567 C19.3707632,11.0144356 15.4233932,17.6517473 9.04075062,18.4953384 C6.35080898,18.8455083 3.75636822,18.2406694 1.59168145,16.6171543 C0.668506208,14.8981383 0,12.7971188 0,10.552848 Z" id="Shape"></path>
                    </g>
                    <g id="Group" transform="translate(1.750850, 6.844230)" fill="#996632">
                        <path d="M73.6630174,4.32937354 C70.8775749,1.52801419 67.1530403,0 63.1897535,0 C59.2264667,0 55.5019321,1.52801419 52.7164895,4.32937354 C49.9151302,7.11481607 48.387116,10.8393507 48.387116,14.8026375 C48.387116,18.7659243 49.9151302,22.4904589 52.7164895,25.2759014 C55.5019321,28.0613439 59.2264667,29.6052749 63.1897535,29.6052749 C67.1530403,29.6052749 70.8775749,28.0772607 73.6630174,25.2759014 C76.4484599,22.4904589 77.9923909,18.7659243 77.9923909,14.8026375 C77.9923909,10.8393507 76.4643767,7.11481607 73.6630174,4.32937354 Z M63.1897535,26.7402483 C56.6001923,26.7402483 51.2521426,21.3921987 51.2521426,14.8026375 C51.2521426,8.21307627 56.6001923,2.86502661 63.1897535,2.86502661 C69.7793147,2.86502661 75.1273643,8.21307627 75.1273643,14.8026375 C75.1273643,21.3921987 69.7793147,26.7402483 63.1897535,26.7402483 Z" id="Shape"></path>
                        <path d="M14.8026375,0 C10.8393507,0 7.11481607,1.52801419 4.32937354,4.32937354 C1.52801419,7.11481607 0,10.8393507 0,14.8026375 C0,18.7659243 1.52801419,22.4904589 4.32937354,25.2759014 C7.11481607,28.0772607 10.8393507,29.6052749 14.8026375,29.6052749 C18.7659243,29.6052749 22.4904589,28.0772607 25.2759014,25.2759014 C28.0613439,22.4904589 29.6052749,18.7659243 29.6052749,14.8026375 C29.6052749,10.8393507 28.0772607,7.11481607 25.2759014,4.32937354 C22.4904589,1.52801419 18.7659243,0 14.8026375,0 Z M14.8026375,26.7402483 C8.21307627,26.7402483 2.86502661,21.3921987 2.86502661,14.8026375 C2.86502661,8.21307627 8.21307627,2.86502661 14.8026375,2.86502661 C21.3921987,2.86502661 26.7402483,8.21307627 26.7402483,14.8026375 C26.7402483,21.3921987 21.3921987,26.7402483 14.8026375,26.7402483 Z" id="Shape"></path>
                        <path d="M14.8026375,0.795840724 C22.5700429,0.795840724 28.8094342,7.035232 28.8094342,14.8026375 C28.8094342,22.5700429 22.5700429,28.8094342 14.8026375,28.8094342 C7.035232,28.8094342 0.795840724,22.5700429 0.795840724,14.8026375 C0.795840724,7.035232 7.035232,0.795840724 14.8026375,0.795840724 Z M2.06918588,14.8026375 C2.06918588,21.8060358 7.79923909,27.536089 14.8026375,27.536089 C21.8060358,27.536089 27.536089,21.8060358 27.536089,14.8026375 C27.536089,7.79923909 21.8060358,2.06918588 14.8026375,2.06918588 C7.79923909,2.06918588 2.06918588,7.79923909 2.06918588,14.8026375 Z" id="Shape"></path>
                    </g>
                    <path d="M60.1814755,27.1540855 L70.35232,16.983241 L72.15092,18.7818411 L61.9800756,28.9526855 L60.1814755,27.1540855 Z M57.6984525,19.4503473 L62.8236667,14.325133 L64.6222668,16.1237331 L59.4970525,21.2489473 L57.6984525,19.4503473 Z M54.7538418,21.6468677 C54.7538418,27.2495864 59.3378844,31.8336289 64.9406031,31.8336289 C70.5433217,31.8336289 75.1273643,27.2495864 75.1273643,21.6468677 C75.1273643,16.044149 70.5433217,11.4601064 64.9406031,11.4601064 C59.3378844,11.4601064 54.7538418,16.044149 54.7538418,21.6468677 Z M64.9406031,34.3803193 C57.9372047,34.3803193 52.2071515,28.6502661 52.2071515,21.6468677 C52.2071515,14.6434693 57.9372047,8.91341611 64.9406031,8.91341611 C71.9440014,8.91341611 77.6740546,14.6434693 77.6740546,21.6468677 C77.6740546,28.6502661 71.9440014,34.3803193 64.9406031,34.3803193 Z M45.8404257,15.2801419 L45.8404257,12.7334516 L35.6536644,12.7334516 L35.6536644,15.2801419 L45.8404257,15.2801419 Z M48.387116,11.4601064 L48.387116,16.5534871 C48.387116,16.6808216 48.387116,16.6808216 48.387116,16.8081561 C48.2597815,17.4448287 47.7504434,17.8268322 47.1137708,17.8268322 L34.3803193,17.8268322 C33.7436467,17.8268322 33.2343086,17.4448287 33.1069741,16.8081561 C33.1069741,16.6808216 33.1069741,16.6808216 33.1069741,16.5534871 L33.1069741,11.4601064 C33.1069741,10.8234338 33.7436467,10.1867613 34.3803193,10.1867613 L47.1137708,10.1867613 C47.7504434,10.1867613 48.387116,10.8234338 48.387116,11.4601064 Z M11.7943595,27.1540855 L21.965204,16.983241 L23.763804,18.7818411 L13.5929596,28.9526855 L11.7943595,27.1540855 Z M9.31133647,19.4503473 L14.4365507,14.325133 L16.2351508,16.1237331 L11.1099365,21.2489473 L9.31133647,19.4503473 Z M16.5534871,34.3803193 C9.55008868,34.3803193 3.82003547,28.6502661 3.82003547,21.6468677 C3.82003547,14.6434693 9.55008868,8.91341611 16.5534871,8.91341611 C23.5568854,8.91341611 29.2869386,14.6434693 29.2869386,21.6468677 C29.2869386,28.6502661 23.5568854,34.3803193 16.5534871,34.3803193 Z M10.8711843,29.9872785 C11.921694,30.7194519 13.0995383,31.2765404 14.3728835,31.5789599 C15.0413897,31.7381281 15.7417295,31.8336289 16.4420694,31.8336289 C22.044788,31.8336289 26.6288306,27.2495864 26.6288306,21.6468677 C26.6288306,18.7500075 25.1804005,15.8372304 23.0634642,13.8794622 C21.3921987,12.351448 19.1001774,11.4601064 16.5534871,11.4601064 C10.9507684,11.4601064 6.36672579,16.044149 6.36672579,21.6468677 C6.36672579,24.9893987 8.18124264,28.1090944 10.8711843,29.9872785 Z M44.5670805,3.82003547 L44.5670805,2.54669032 L36.9270096,2.54669032 L36.9270096,3.82003547 L44.5670805,3.82003547 Z M30.5602838,21.6468677 C30.5602838,13.8794622 24.3208925,7.64007095 16.5534871,7.64007095 C8.78608159,7.64007095 2.54669032,13.8794622 2.54669032,21.6468677 C2.54669032,29.4142731 8.78608159,35.6536644 16.5534871,35.6536644 C24.3208925,35.6536644 30.5602838,29.4142731 30.5602838,21.6468677 Z M64.9406031,7.64007095 C57.1731976,7.64007095 50.9338063,13.8794622 50.9338063,21.6468677 C50.9338063,29.4142731 57.1731976,35.6536644 64.9406031,35.6536644 C72.7080085,35.6536644 78.9473998,29.4142731 78.9473998,21.6468677 C78.9473998,13.8794622 72.7080085,7.64007095 64.9406031,7.64007095 Z M64.9406031,38.2003547 C56.6638595,38.2003547 49.7877957,32.088298 48.641785,24.193558 L32.8523051,24.193558 C31.5789599,32.088298 24.8302306,38.2003547 16.5534871,38.2003547 C7.38540192,38.2003547 0,30.8149528 0,21.6468677 C0,12.4787825 7.38540192,5.09338063 16.5534871,5.09338063 C19.7368499,5.09338063 22.7928783,5.98472224 25.3395686,7.64007095 L34.3803193,5.34804966 L34.3803193,1.27334516 C34.3803193,0.636672579 35.0169918,0 35.6536644,0 L45.8404257,0 C46.4770983,0 47.1137708,0.636672579 47.1137708,1.27334516 L47.1137708,5.34804966 L56.1545215,7.64007095 C58.7012118,5.98472224 61.7572402,5.09338063 64.9406031,5.09338063 C74.1086882,5.09338063 81.4940901,12.4787825 81.4940901,21.6468677 C81.4940901,30.8149528 74.1086882,38.2003547 64.9406031,38.2003547 Z M48.387116,21.6468677 C48.387116,19.991519 48.641785,18.4635048 49.0237886,17.0628251 C49.9151302,14.2614658 51.4431444,11.7147755 53.6078311,9.6774232 L45.5857567,7.64007095 C45.0764186,7.51273643 44.5670805,7.00339837 44.5670805,6.36672579 L36.9270096,6.36672579 C36.9270096,7.00339837 36.545006,7.51273643 35.9083335,7.64007095 L27.886259,9.6774232 C30.0509457,11.7147755 31.5789599,14.2614658 32.4703015,17.0628251 C32.8523051,18.4635048 33.1069741,20.1188535 33.1069741,21.6468677 L48.387116,21.6468677 Z" id="Shape" fill="#42210B"></path>
                </g>
            </g>
        </g>
    </g>
</svg>