<?xml version="1.0" encoding="UTF-8"?>
<svg width="62px" height="75px" viewBox="0 0 62 75" version="1.1" xmlns="http://www.w3.org/2000/svg" xmlns:xlink="http://www.w3.org/1999/xlink">
    <!-- Generator: Sketch 45.2 (43514) - http://www.bohemiancoding.com/sketch -->
    <title>icono-comidas</title>
    <desc>Created with Sketch.</desc>
    <defs></defs>
    <g id="Responsive" stroke="none" stroke-width="1" fill="none" fill-rule="evenodd">
        <g id="Mobile--Responsive" transform="translate(-34.000000, -357.000000)" fill-rule="nonzero">
            <g id="body--index" transform="translate(0.000000, 144.000000)">
                <g id="icono-comidas" transform="translate(34.000000, 213.000000)">
                    <polygon id="Shape" fill="#ED5564" points="44.3127415 32.6340328 44.3127415 39.005633 54.5466899 39.005633 54.5466899 56.1904179 44.3127415 56.1904179 44.3127415 62.5620181 60.9182901 62.5620181 60.9182901 59.9554544 60.9182901 56.1904179 60.9182901 39.005633 60.9182901 35.3402252 60.9182901 32.6340328"></polygon>
                    <polygon id="Shape" fill="#ED5564" points="41.1291136 72.2371482 3.37926504 72.2371482 1.6415559 68.2548981 1.6415559 23.1717721 44.7109666 23.1717721 44.7109666 68.0625916"></polygon>
                    <polygon id="Shape" fill="#FFF8EF" points="16.6429093 44.5854171 10.5541213 56.3149538 23.2860265 56.3149538"></polygon>
                    <polygon id="Shape" fill="#FFF8EF" points="27.8451961 38.476211 19.2222489 55.0885655 37.2577872 55.0885655"></polygon>
                    <path d="M58.8004571,30.8918346 L46.4712659,30.8918346 C46.4554817,30.8918346 46.4418697,30.8941516 46.4282576,30.8941516 L46.4282576,21.6240525 L0.0893472116,21.6240525 L0.0893472116,67.9629629 C0.0893472116,71.3749548 2.85650421,74.1422566 6.26864091,74.1422566 L40.2512809,74.1422566 C43.6632728,74.1422566 46.4282576,71.3750997 46.4282576,67.9629629 L46.4282576,64.8721576 C46.4418697,64.8721576 46.4554817,64.8744746 46.4712659,64.8744746 L58.8004571,64.8744746 C60.506453,64.8744746 61.8889455,63.4919821 61.8889455,61.7859862 L61.8889455,33.9826399 C61.8889455,32.276644 60.506453,30.8918346 58.8004571,30.8918346 Z M43.3397692,67.9629629 C43.3397692,69.6667868 41.9551047,71.0537683 40.2512809,71.0537683 L6.26864091,71.0537683 C4.5648171,71.0537683 3.18015254,69.6667868 3.18015254,67.9629629 L3.18015254,24.7148579 L43.3397692,24.7148579 L43.3397692,67.9629629 Z M46.4712659,40.1596167 L52.6211634,40.1596167 L52.6211634,40.1596167 L52.6211634,55.6066925 L46.4712659,55.6066925 L46.4712659,40.1596167 Z M58.8004571,61.7859862 L46.4712659,61.7859862 L46.4712659,58.6951809 L52.6211634,58.6951809 C54.3271593,58.6951809 55.7096518,57.3126884 55.7096518,55.6066925 L55.7096518,40.1596167 C55.7096518,38.4536208 54.3271593,37.0711283 52.6211634,37.0711283 L46.4712659,37.0711283 L46.4712659,33.9826399 L58.8004571,33.9826399 L58.8004571,33.9826399 L58.8004571,61.7859862 Z" id="Shape" fill="#42210B"></path>
                    <path d="M33.3524308,15.8655741 C33.6895463,17.0376589 34.3411873,17.8679942 34.4135918,17.9608169 L34.4135918,17.9584999 C34.6987209,18.3115445 35.1308313,18.5354194 35.617245,18.5354194 C36.4703154,18.5354194 37.1603307,17.8452592 37.1603307,16.9900167 C37.1603307,16.6235049 37.0336228,16.2863893 36.8187261,16.0215335 L36.8187261,16.0215335 L36.8277042,16.0305116 C36.8232152,16.0260225 36.4588755,15.555393 36.3027713,14.9489325 C36.142178,14.3198818 36.264252,13.8605473 36.7099744,13.4103359 C37.9657589,12.1522344 38.3797681,10.5164709 37.8797423,8.80366893 C37.5426267,7.65417434 36.8933028,6.84425707 36.8094583,6.74013933 L36.8071413,6.74013933 C36.8071413,6.74013933 36.8071413,6.73782238 36.8048244,6.73565025 L36.8048244,6.73565025 C36.5220122,6.39621773 36.094391,6.17900408 35.6169554,6.17900408 C34.763885,6.17900408 34.0715527,6.87133637 34.0715527,7.7220898 C34.0715527,8.09540765 34.2050667,8.43715711 34.4245973,8.70404027 L34.4177913,8.69955119 C34.4222804,8.70404027 34.779814,9.1565687 34.9314291,9.73812202 C35.0898503,10.3377765 34.9676314,10.785671 34.521909,11.2313934 C33.2710481,12.4874675 32.8547219,14.134671 33.3524308,15.8655741 Z M34.4250317,8.70432989 C34.4250317,8.70664684 34.4273487,8.70881897 34.4273487,8.70881897 L34.4273487,8.70881897 L34.4250317,8.70432989 Z" id="Shape" fill="#42210B"></path>
                    <path d="M20.5821511,14.8655225 C21.0414856,16.5964256 21.9306134,17.7955897 22.0302421,17.9269315 L22.032559,17.9269315 C22.313199,18.2957603 22.7589214,18.5355642 23.2589472,18.5355642 C24.1120176,18.5355642 24.8043499,17.845404 24.8043499,16.9901615 C24.8043499,16.6417508 24.6867649,16.3204194 24.4921415,16.0625144 L24.4944584,16.0625144 C24.4876524,16.0535363 23.8428175,15.1800478 23.5463933,13.9900067 C23.1911766,12.5645059 23.4763057,11.3562188 24.4175648,10.2905687 C26.0670852,8.42383468 26.5920182,6.13411326 25.9380603,3.6700417 C25.4764089,1.93913859 24.589598,0.739974476 24.4899693,0.608632626 L24.4876524,0.608632626 C24.2045506,0.239803861 23.7611452,0 23.2588024,0 C22.405732,0 21.7157167,0.690160147 21.7157167,1.54540266 C21.7157167,1.89381334 21.8311295,2.21514473 22.0279251,2.47304972 L22.0256082,2.47304972 C22.0324142,2.48202789 22.6749321,3.35551635 22.9736733,4.54555749 C23.32889,5.97105822 23.0437609,7.17934531 22.1025018,8.24499544 C20.4531262,10.1117295 19.9260211,12.4015957 20.5821511,14.8655225 Z" id="Shape" fill="#42210B"></path>
                    <path d="M8.6375729,15.8655741 C8.97468847,17.0376589 9.6263294,17.8679942 9.70105089,17.9608169 L9.70105089,17.9584999 C9.98386306,18.3115445 10.4161182,18.5354194 10.902532,18.5354194 C11.7556023,18.5354194 12.4479346,17.8452592 12.4479346,16.9900167 C12.4479346,16.6235049 12.3189097,16.2863893 12.104013,16.0215335 L12.10633,16.0215335 L12.113136,16.0305116 C12.1086469,16.0260225 11.7466242,15.555393 11.59052,14.9489325 C11.4276097,14.3198818 11.5498286,13.8605473 11.9977231,13.4103359 C13.2511907,12.1522344 13.6653447,10.5164709 13.1651741,8.80366893 C12.8280585,7.65417434 12.1787345,6.84425707 12.09489,6.74013933 L12.09489,6.74013933 C12.0925731,6.74013933 12.0925731,6.73782238 12.0925731,6.73565025 L12.0925731,6.73565025 C11.807444,6.39621773 11.3798227,6.17900408 10.9023871,6.17900408 C10.0493168,6.17900408 9.35698448,6.87133637 9.35698448,7.7220898 C9.35698448,8.09540765 9.49049847,8.43715711 9.71002906,8.70404027 L9.70553998,8.69955119 C9.70785692,8.70404027 10.0652458,9.1565687 10.2191778,9.73812202 C10.375282,10.3377765 10.2530632,10.785671 9.80734077,11.2313934 C8.55619019,12.4874675 8.13986404,14.134671 8.6375729,15.8655741 Z M9.71017387,8.70432989 C9.71249081,8.70664684 9.71249081,8.70881897 9.71466295,8.70881897 L9.712346,8.70881897 L9.71017387,8.70432989 Z" id="Shape" fill="#42210B"></path>
                    <path d="M25.4671411,57.1520951 L38.7058782,57.1520951 L26.9378223,36.5574905 L20.1905873,48.3594317 L16.6404475,42.4403599 L7.81404358,57.1520951 L15.1675942,57.1520951 L25.4671411,57.1520951 Z M33.381827,54.0612898 L20.4915006,54.0612898 L26.9378223,42.7842815 L33.381827,54.0612898 Z M13.2692918,54.0612898 L16.6405923,48.4454483 L18.4349218,51.436625 L16.9348444,54.0612898 L13.2692918,54.0612898 Z" id="Shape" fill="#42210B"></path>
                </g>
            </g>
        </g>
    </g>
</svg>