<?xml version="1.0" encoding="UTF-8"?>
<svg width="59px" height="64px" viewBox="0 0 59 64" version="1.1" xmlns="http://www.w3.org/2000/svg" xmlns:xlink="http://www.w3.org/1999/xlink">
    <!-- Generator: Sketch 45.2 (43514) - http://www.bohemiancoding.com/sketch -->
    <title>024-compass</title>
    <desc>Created with Sketch.</desc>
    <defs></defs>
    <g id="Index---sitio-Bariloche" stroke="none" stroke-width="1" fill="none" fill-rule="evenodd">
        <g id="Colores" transform="translate(-39.000000, -50.000000)" fill-rule="nonzero">
            <g id="024-compass" transform="translate(39.000000, 50.000000)">
                <path d="M33.6271186,5.74915254 C47.7288136,7.81016949 58.5762712,20.0677966 58.5762712,34.7118644 C58.5762712,50.8745763 45.4508475,64 29.2881356,64 C13.1254237,64 0,50.8745763 0,34.7118644 C0,20.0677966 10.8474576,7.81016949 24.9491525,5.74915254 L24.9491525,1.08474576 C24.9491525,0.433898305 25.4915254,0 26.0338983,0 L32.5423729,0 C33.0847458,0 33.6271186,0.433898305 33.6271186,1.08474576 L33.6271186,5.74915254 Z M56.4067797,34.7118644 C56.4067797,19.7423729 44.2576271,7.59322034 29.2881356,7.59322034 C14.3186441,7.59322034 2.16949153,19.7423729 2.16949153,34.7118644 C2.16949153,49.6813559 14.3186441,61.8305085 29.2881356,61.8305085 C44.2576271,61.8305085 56.4067797,49.6813559 56.4067797,34.7118644 Z M31.4576271,5.53220339 L31.4576271,2.16949153 L27.1186441,2.16949153 L27.1186441,5.53220339 C27.8779661,5.42372881 28.5288136,5.42372881 29.2881356,5.42372881 C30.0474576,5.42372881 30.6983051,5.42372881 31.4576271,5.53220339 Z" id="Shape" fill="#42210B"></path>
                <path d="M52.0677966,33.6271186 L48.8135593,33.6271186 L48.8135593,35.7966102 L52.0677966,35.7966102 C51.5254237,47.5118644 42.0881356,56.840678 30.3728814,57.4915254 L30.3728814,54.2372881 L28.2033898,54.2372881 L28.2033898,57.4915254 C16.4881356,56.9491525 7.15932203,47.5118644 6.50847458,35.7966102 L9.76271186,35.7966102 L9.76271186,33.6271186 L6.61694915,33.6271186 C7.15932203,21.9118644 16.5966102,12.5830508 28.3118644,11.9322034 L28.3118644,15.1864407 L30.4813559,15.1864407 L30.4813559,11.9322034 C42.0881356,12.5830508 51.4169492,21.9118644 52.0677966,33.6271186 Z M42.1966102,23.2135593 C42.4135593,22.779661 42.3050847,22.3457627 41.979661,22.020339 C41.6542373,21.6949153 41.1118644,21.5864407 40.7864407,21.8033898 L24.5152542,29.3966102 C24.2983051,29.5050847 24.0813559,29.7220339 23.9728814,29.9389831 L16.379661,46.2101695 C16.1627119,46.6440678 16.2711864,47.0779661 16.5966102,47.4033898 C16.8135593,47.620339 17.0305085,47.7288136 17.3559322,47.7288136 C17.4644068,47.7288136 17.6813559,47.7288136 17.7898305,47.620339 L34.0610169,40.0271186 C34.2779661,39.9186441 34.4949153,39.7016949 34.6033898,39.4847458 L42.1966102,23.2135593 Z" id="Shape" fill="#D9CDC1"></path>
                <path d="M29.2881356,7.59322034 C44.2576271,7.59322034 56.4067797,19.7423729 56.4067797,34.7118644 C56.4067797,49.6813559 44.2576271,61.8305085 29.2881356,61.8305085 C14.3186441,61.8305085 2.16949153,49.6813559 2.16949153,34.7118644 C2.16949153,19.7423729 14.3186441,7.59322034 29.2881356,7.59322034 Z M54.2372881,34.7118644 C54.2372881,20.9355932 43.0644068,9.76271186 29.2881356,9.76271186 C15.5118644,9.76271186 4.33898305,20.9355932 4.33898305,34.7118644 C4.33898305,48.4881356 15.5118644,59.6610169 29.2881356,59.6610169 C43.0644068,59.6610169 54.2372881,48.4881356 54.2372881,34.7118644 Z" id="Shape" fill="#996632"></path>
                <g id="Group" transform="translate(4.338983, 9.762712)" fill="#42210B">
                    <path d="M24.9491525,0 C38.7254237,0 49.8983051,11.1728814 49.8983051,24.9491525 C49.8983051,38.7254237 38.7254237,49.8983051 24.9491525,49.8983051 C11.1728814,49.8983051 0,38.7254237 0,24.9491525 C0,11.1728814 11.1728814,0 24.9491525,0 Z M44.4745763,23.8644068 L47.7288136,23.8644068 C47.1864407,12.1491525 37.7491525,2.82033898 26.0338983,2.16949153 L26.0338983,5.42372881 L23.8644068,5.42372881 L23.8644068,2.16949153 C12.1491525,2.71186441 2.82033898,12.1491525 2.16949153,23.8644068 L5.42372881,23.8644068 L5.42372881,26.0338983 L2.2779661,26.0338983 C2.82033898,37.7491525 12.2576271,47.0779661 23.9728814,47.7288136 L23.9728814,44.4745763 L26.1423729,44.4745763 L26.1423729,47.7288136 C37.8576271,47.1864407 47.1864407,37.7491525 47.8372881,26.0338983 L44.5830508,26.0338983 L44.5830508,23.8644068 L44.4745763,23.8644068 Z" id="Shape"></path>
                    <path d="M37.640678,12.2576271 C37.9661017,12.5830508 38.0745763,13.1254237 37.8576271,13.4508475 L30.2644068,29.7220339 C30.1559322,29.9389831 29.9389831,30.1559322 29.7220339,30.2644068 L13.4508475,37.8576271 C13.3423729,37.9661017 13.1254237,37.9661017 13.0169492,37.9661017 C12.6915254,37.9661017 12.4745763,37.8576271 12.2576271,37.640678 C11.9322034,37.3152542 11.8237288,36.7728814 12.040678,36.4474576 L19.6338983,20.1762712 C19.7423729,19.959322 19.959322,19.7423729 20.1762712,19.6338983 L36.4474576,12.040678 C36.8813559,11.8237288 37.3152542,11.9322034 37.640678,12.2576271 Z M28.9627119,27.4440678 L34.6033898,15.2949153 L22.4542373,20.9355932 L24.0813559,22.5627119 L27.2271186,25.7084746 L28.9627119,27.4440678 Z M15.2949153,34.6033898 L27.4440678,28.9627119 L25.8169492,27.3355932 L22.6711864,24.1898305 L21.0440678,22.5627119 L15.2949153,34.6033898 Z" id="Shape"></path>
                </g>
                <polygon id="Shape" fill="#F69494" points="38.9423729 25.0576271 33.3016949 37.2067797 31.6745763 35.579661"></polygon>
                <polygon id="Shape" fill="#EE5656" points="38.9423729 25.0576271 31.6745763 35.579661 28.5288136 32.3254237"></polygon>
                <polygon id="Shape" fill="#E94545" points="38.9423729 25.0576271 28.5288136 32.3254237 26.7932203 30.6983051"></polygon>
                <polygon id="Shape" fill="#6CD3D8" points="31.7830508 38.7254237 19.6338983 44.3661017 30.1559322 37.0983051"></polygon>
                <path d="M31.4576271,2.16949153 L31.4576271,5.53220339 C30.6983051,5.42372881 30.0474576,5.42372881 29.2881356,5.42372881 C28.5288136,5.42372881 27.8779661,5.42372881 27.1186441,5.53220339 L27.1186441,2.16949153 L31.4576271,2.16949153 Z" id="Shape" fill="#875426"></path>
                <polygon id="Shape" fill="#2FB4C2" points="30.1559322 37.0983051 19.6338983 44.3661017 26.9016949 33.9525424"></polygon>
                <polygon id="Shape" fill="#1D9AAE" points="26.9016949 33.9525424 19.6338983 44.3661017 25.2745763 32.2169492"></polygon>
                <path d="M49.8983051,25.0576271 C46.4271186,17.6813559 39.0508475,12.3661017 30.3728814,12.040678 L30.3728814,15.2949153 L28.2033898,15.2949153 L28.2033898,12.040678 C16.4881356,12.5830508 7.15932203,22.020339 6.50847458,33.7355932 L9.76271186,33.7355932 L9.76271186,35.9050847 L6.50847458,35.9050847 C6.83389831,43.4983051 10.9559322,50.1152542 16.9220339,53.9118644 C18.440678,54.1288136 19.959322,54.3457627 21.5864407,54.3457627 C34.4949153,54.3457627 45.3423729,45.6677966 48.7050847,33.8440678 L48.7050847,33.6271186 L48.7050847,33.6271186 C49.3559322,31.240678 49.7898305,28.6372881 49.7898305,26.0338983 C49.8983051,25.7084746 49.8983051,25.3830508 49.8983051,25.0576271 Z M42.1966102,23.2135593 L34.6033898,39.4847458 C34.4949153,39.7016949 34.2779661,39.9186441 34.0610169,40.0271186 L17.7898305,47.620339 C17.6813559,47.7288136 17.4644068,47.7288136 17.3559322,47.7288136 C17.0305085,47.7288136 16.8135593,47.620339 16.5966102,47.4033898 C16.2711864,47.0779661 16.1627119,46.5355932 16.379661,46.2101695 L23.9728814,29.9389831 C24.0813559,29.7220339 24.2983051,29.5050847 24.5152542,29.3966102 L40.7864407,21.8033898 C41.220339,21.5864407 41.6542373,21.6949153 41.979661,22.020339 C42.3050847,22.3457627 42.4135593,22.779661 42.1966102,23.2135593 Z" id="Shape" fill="#FFF8EF"></path>
            </g>
        </g>
    </g>
</svg>