<?xml version="1.0" encoding="UTF-8"?>
<svg width="70px" height="63px" viewBox="0 0 70 63" version="1.1" xmlns="http://www.w3.org/2000/svg" xmlns:xlink="http://www.w3.org/1999/xlink">
    <!-- Generator: Sketch 45.2 (43514) - http://www.bohemiancoding.com/sketch -->
    <title>icono-mapa</title>
    <desc>Created with Sketch.</desc>
    <defs></defs>
    <g id="Responsive" stroke="none" stroke-width="1" fill="none" fill-rule="evenodd">
        <g id="Mobile--Responsive" transform="translate(-30.000000, -160.000000)" fill-rule="nonzero">
            <g id="body--index" transform="translate(0.000000, 144.000000)">
                <g id="icono-mapa" transform="translate(30.000000, 16.000000)">
                    <path d="M17.9571594,9.93044942 L17.9571594,46.4788803 C16.1614434,44.2903516 13.243405,42.7583814 10.1009021,42.7583814 C6.95839926,42.7583814 4.1525931,44.1809251 2.24464492,46.4788803 L2.24464492,9.93044942 C2.24464492,5.66281827 5.72384455,2.27059863 10.1009021,2.27059863 C14.4779597,2.27059863 17.9571594,5.66281827 17.9571594,9.93044942 Z" id="Shape" fill="#E4C6A1"></path>
                    <path d="M59.4830904,44.9469102 C55.1060328,44.9469102 51.6268332,48.3391298 51.6268332,52.606761 L51.4023687,52.606761 L49.3821883,52.606761 L49.3821883,15.4017714 L46.0152209,15.4017714 L46.0152209,13.2132426 L49.3821883,13.2132426 L49.3821883,11.0247138 L20.2018043,11.0247138 L20.2018043,13.2132426 L23.5687717,13.2132426 L23.5687717,15.4017714 L20.2018043,15.4017714 L20.2018043,52.606761 L19.3039463,52.606761 L17.9571594,52.606761 C17.9571594,48.3391298 14.4779597,44.9469102 10.1009021,44.9469102 C5.72384455,44.9469102 2.24464492,48.3391298 2.24464492,52.606761 C2.24464492,54.0293047 2.69357391,55.342422 3.36696738,56.5461128 L3.36696738,55.8895542 L5.6116123,55.8895542 L5.6116123,58.078083 L4.60152209,58.078083 C6.06054129,59.3912003 7.96848947,60.2666118 10.1009021,60.2666118 L19.3039463,60.2666118 L46.8008466,60.2666118 L59.4830904,60.2666118 C61.7277353,60.2666118 63.6356835,59.3912003 65.0947027,57.9686565 L65.0947027,55.8895542 L66.5537219,55.8895542 C67.0026509,54.9047162 67.3393476,53.8104518 67.3393476,52.606761 C67.3393476,48.3391298 63.860148,44.9469102 59.4830904,44.9469102 Z M14.8146565,58.078083 L10.2131344,58.078083 L10.2131344,55.8895542 L14.8146565,55.8895542 C14.8146565,55.8895542 14.8146565,58.078083 14.8146565,58.078083 Z M37.0366412,13.2132426 L41.525931,13.2132426 L41.525931,15.4017714 L37.0366412,15.4017714 L37.0366412,13.2132426 Z M41.0770021,30.3931937 L39.0568216,31.4874581 C38.6078926,30.6120466 37.9344992,29.8460615 37.2611057,29.1895028 L38.8323571,27.5481062 C39.7302151,28.4235178 40.5158408,29.4083557 41.0770021,30.3931937 Z M28.0580615,13.2132426 L32.5473514,13.2132426 L32.5473514,15.4017714 L28.0580615,15.4017714 L28.0580615,13.2132426 Z M23.9054684,58.078083 L19.3039463,58.078083 L19.3039463,55.8895542 L23.9054684,55.8895542 L23.9054684,58.078083 L23.9054684,58.078083 Z M25.2522554,26.1255625 L24.0177007,24.265313 L26.4868101,22.6239165 L24.9155586,20.2165348 L26.8235068,19.0128439 L28.5069905,21.4202256 L30.9760999,19.8882555 L32.2106546,21.7485049 L29.7415452,23.3899015 L31.3127966,25.7972832 L29.4048485,27.000974 L27.7213648,24.5935924 L25.2522554,26.1255625 Z M33.1085126,58.078083 L28.5069905,58.078083 L28.5069905,55.8895542 L33.1085126,55.8895542 L33.1085126,58.078083 Z M31.8739579,26.4538418 L32.4351191,24.265313 C33.6696738,24.5935924 34.7919963,24.9218717 35.8020865,25.4690039 L34.7919963,27.4386798 C34.0063706,27.1104005 32.9962803,26.6726947 31.8739579,26.4538418 Z M42.1993245,58.078083 L37.5978024,58.078083 L37.5978024,55.8895542 L42.1993245,55.8895542 L42.1993245,58.078083 Z M45.7907564,46.150601 L42.3115568,49.5428207 C42.0870923,49.7616735 41.8626278,49.8711 41.525931,49.8711 C41.1892343,49.8711 40.9647698,49.7616735 40.7403053,49.5428207 L37.2611057,46.150601 C36.1387832,45.0563366 35.4653898,43.5243665 35.4653898,41.9923963 C35.4653898,40.4604262 36.1387832,38.928456 37.2611057,37.8341916 C38.1589637,36.8493536 39.2812861,36.3022214 40.4036086,36.192795 C40.4036086,35.6456628 40.2913763,34.9891042 40.1791441,34.3325455 L42.423789,33.8948398 C42.6482535,34.7702513 42.6482535,35.6456628 42.7604857,36.192795 C43.8828082,36.4116479 45.0051307,36.9587801 45.9029886,37.8341916 C47.0253111,38.928456 47.6987046,40.4604262 47.6987046,41.9923963 C47.6987046,43.5243665 46.9130789,44.9469102 45.7907564,46.150601 Z M51.4023687,58.078083 L46.8008466,58.078083 L46.8008466,55.8895542 L51.4023687,55.8895542 L51.4023687,58.078083 Z M60.4931806,58.078083 L55.8916585,58.078083 L55.8916585,55.8895542 L60.4931806,55.8895542 L60.4931806,58.078083 Z" id="Shape" fill="#FFF8EF"></path>
                    <path d="M39.5057506,41.8829699 C39.5057506,42.9772343 40.4036086,43.8526458 41.525931,43.8526458 C42.6482535,43.8526458 43.5461115,42.9772343 43.5461115,41.8829699 C43.5461115,40.7887055 42.6482535,39.913294 41.525931,39.913294 C40.4036086,39.913294 39.5057506,40.7887055 39.5057506,41.8829699 Z M45.3418274,41.8829699 C45.3418274,42.8678078 45.0051307,43.8526458 44.2195049,44.5092044 L41.525931,47.135439 L38.8323571,44.5092044 C38.1589637,43.8526458 37.7100347,42.8678078 37.7100347,41.8829699 C37.7100347,40.8981319 38.0467314,39.913294 38.8323571,39.2567353 C39.5057506,38.6001767 40.5158408,38.1624709 41.525931,38.1624709 C42.5360213,38.1624709 43.5461115,38.6001767 44.2195049,39.2567353 C44.8928984,40.0227204 45.3418274,40.8981319 45.3418274,41.8829699 Z" id="Shape" fill="#EE5656"></path>
                    <path d="M67.3393476,9.93044942 L67.3393476,46.4788803 C65.4313995,44.2903516 62.6255933,42.7583814 59.4830904,42.7583814 C56.3405875,42.7583814 53.5347814,44.1809251 51.6268332,46.4788803 L51.6268332,9.93044942 C51.6268332,5.66281827 55.1060328,2.27059863 59.4830904,2.27059863 C63.860148,2.27059863 67.3393476,5.66281827 67.3393476,9.93044942 Z" id="Shape" fill="#E4C6A1"></path>
                    <g id="Group" fill="#42210B">
                        <rect id="Rectangle-path" x="55.8916585" y="55.8895542" width="4.60152209" height="2.1885288"></rect>
                        <rect id="Rectangle-path" x="46.8008466" y="55.8895542" width="4.60152209" height="2.1885288"></rect>
                        <rect id="Rectangle-path" x="37.5978024" y="55.8895542" width="4.60152209" height="2.1885288"></rect>
                        <rect id="Rectangle-path" x="37.0366412" y="13.2132426" width="4.48928984" height="2.1885288"></rect>
                        <path d="M41.525931,43.8526458 C40.4036086,43.8526458 39.5057506,42.9772343 39.5057506,41.8829699 C39.5057506,40.7887055 40.4036086,39.913294 41.525931,39.913294 C42.6482535,39.913294 43.5461115,40.7887055 43.5461115,41.8829699 C43.5461115,42.9772343 42.6482535,43.8526458 41.525931,43.8526458 Z M41.7503955,41.8829699 C41.7503955,41.7735434 41.6381633,41.664117 41.525931,41.664117 C41.4136988,41.664117 41.3014665,41.7735434 41.3014665,41.8829699 C41.3014665,42.1018228 41.7503955,42.1018228 41.7503955,41.8829699 Z" id="Shape"></path>
                        <path d="M41.0770021,30.3931937 L39.0568216,31.4874581 C38.6078926,30.6120466 37.9344992,29.8460615 37.2611057,29.1895028 L38.8323571,27.5481062 C39.7302151,28.4235178 40.5158408,29.4083557 41.0770021,30.3931937 Z" id="Shape"></path>
                        <path d="M44.2195049,44.5092044 C44.8928984,43.8526458 45.3418274,42.8678078 45.3418274,41.8829699 C45.3418274,40.8981319 45.0051307,39.913294 44.2195049,39.2567353 C43.5461115,38.6001767 42.5360213,38.1624709 41.525931,38.1624709 C40.5158408,38.1624709 39.5057506,38.6001767 38.8323571,39.2567353 C38.1589637,39.913294 37.7100347,40.8981319 37.7100347,41.8829699 C37.7100347,42.8678078 38.0467314,43.8526458 38.8323571,44.5092044 L41.525931,47.135439 L44.2195049,44.5092044 Z M37.2611057,37.7247652 C38.1589637,36.9587801 39.2812861,36.3022214 40.4036086,36.192795 C40.4036086,35.6456628 40.2913763,34.9891042 40.1791441,34.3325455 L42.423789,33.8948398 C42.6482535,34.7702513 42.6482535,35.6456628 42.7604857,36.192795 C43.8828082,36.4116479 45.0051307,36.9587801 45.9029886,37.8341916 C47.0253111,38.928456 47.6987046,40.4604262 47.6987046,41.9923963 C47.6987046,43.5243665 47.0253111,45.0563366 45.9029886,46.150601 L42.423789,49.5428207 C42.1993245,49.7616735 41.97486,49.8711 41.6381633,49.8711 C41.3014665,49.8711 41.0770021,49.7616735 40.8525376,49.5428207 L37.3733379,46.150601 C36.2510155,45.0563366 35.577622,43.5243665 35.577622,41.9923963 C35.4653898,40.3509997 36.1387832,38.928456 37.2611057,37.7247652 Z" id="Shape"></path>
                        <path d="M31.8739579,26.4538418 L32.4351191,24.265313 C33.6696738,24.5935924 34.7919963,24.9218717 35.8020865,25.4690039 L34.7919963,27.4386798 C34.0063706,27.1104005 32.9962803,26.7821212 31.8739579,26.4538418 Z" id="Shape"></path>
                        <rect id="Rectangle-path" x="28.5069905" y="55.8895542" width="4.60152209" height="2.1885288"></rect>
                        <rect id="Rectangle-path" x="28.0580615" y="13.2132426" width="4.48928984" height="2.1885288"></rect>
                        <polygon id="Shape" points="29.629313 23.3899015 31.2005644 25.7972832 29.4048485 26.8915476 27.7213648 24.5935924 25.2522554 26.1255625 24.1299329 24.3747395 26.4868101 22.7333429 24.9155586 20.3259612 26.7112746 19.2316968 28.3947583 21.5296521 30.8638677 19.9976819 31.9861901 21.7485049"></polygon>
                        <rect id="Rectangle-path" x="19.3039463" y="55.8895542" width="4.60152209" height="2.1885288"></rect>
                        <rect id="Rectangle-path" x="10.2131344" y="55.8895542" width="4.60152209" height="2.1885288"></rect>
                        <path d="M10.1009021,44.9469102 C5.72384455,44.9469102 2.24464492,48.3391298 2.24464492,52.606761 C2.24464492,54.0293047 2.69357391,55.342422 3.36696738,56.5461128 L3.36696738,55.8895542 L5.6116123,55.8895542 L5.6116123,58.078083 L4.60152209,58.078083 C6.06054129,59.3912003 7.96848947,60.2666118 10.1009021,60.2666118 L19.3039463,60.2666118 L46.8008466,60.2666118 L59.4830904,60.2666118 C61.7277353,60.2666118 63.6356835,59.3912003 65.0947027,57.9686565 L65.0947027,55.8895542 L66.5537219,55.8895542 C67.0026509,54.9047162 67.3393476,53.8104518 67.3393476,52.606761 C67.3393476,48.3391298 63.860148,44.9469102 59.4830904,44.9469102 C55.1060328,44.9469102 51.6268332,48.3391298 51.6268332,52.606761 L51.4023687,52.606761 L49.3821883,52.606761 L49.3821883,15.4017714 L46.0152209,15.4017714 L46.0152209,13.2132426 L49.3821883,13.2132426 L49.3821883,11.0247138 L20.2018043,11.0247138 L20.2018043,13.2132426 L23.5687717,13.2132426 L23.5687717,15.4017714 L20.2018043,15.4017714 L20.2018043,52.606761 L19.3039463,52.606761 L17.9571594,52.606761 C17.9571594,48.3391298 14.4779597,44.9469102 10.1009021,44.9469102 Z M59.4830904,42.7583814 C62.6255933,42.7583814 65.4313995,44.1809251 67.3393476,46.4788803 L67.3393476,9.93044942 C67.3393476,5.66281827 63.860148,2.27059863 59.4830904,2.27059863 C55.1060328,2.27059863 51.6268332,5.66281827 51.6268332,9.93044942 L51.6268332,46.4788803 C53.5347814,44.1809251 56.3405875,42.7583814 59.4830904,42.7583814 Z M10.1009021,2.27059863 C5.72384455,2.27059863 2.24464492,5.66281827 2.24464492,9.93044942 L2.24464492,46.4788803 C4.1525931,44.2903516 6.95839926,42.7583814 10.1009021,42.7583814 C13.243405,42.7583814 16.1614434,44.1809251 17.9571594,46.4788803 L17.9571594,9.93044942 C17.9571594,5.66281827 14.4779597,2.27059863 10.1009021,2.27059863 Z M0,9.93044942 C0,4.45912743 4.48928984,0.0820698299 10.1009021,0.0820698299 C15.2635855,0.0820698299 19.5284108,3.91199523 20.089572,8.83618502 L49.3821883,8.83618502 C49.9433495,3.91199523 54.2081748,0.0820698299 59.3708582,0.0820698299 C64.9824705,0.0820698299 69.4717603,4.45912743 69.4717603,9.93044942 L69.4717603,52.606761 C69.4717603,58.078083 64.9824705,62.4551406 59.3708582,62.4551406 L10.1009021,62.4551406 C4.48928984,62.4551406 0,58.078083 0,52.606761 L0,9.93044942 Z" id="Shape"></path>
                    </g>
                    <g id="Group" transform="translate(2.104355, 44.864840)" fill="#D9CDC1">
                        <path d="M4.85404464,12.3378311 C2.16047074,9.93044942 2.04823849,5.66281827 4.7418124,3.25543659 C7.88431529,0.51977559 12.7103019,2.38002507 14.1693211,3.14601015 C12.5980696,1.06690779 9.90449571,-0.24620949 6.87422507,0.19149627 C3.73172218,0.629202029 1.03814828,2.81773083 0.252522554,5.88167114 C-0.308638677,8.07019994 0.140290308,10.0398759 1.15038052,11.6812725 L1.15038052,11.0247138 L3.39502544,11.0247138 L3.39502544,13.2132426 L2.49716747,13.2132426 C3.95618667,14.5263599 5.86413486,15.4017714 7.99654753,15.4017714 L15.8528048,15.4017714 C10.016728,15.4017714 6.76199282,13.9792277 4.85404464,12.3378311 Z" id="Shape"></path>
                        <path d="M62.9903481,13.2132426 C61.5313289,14.5263599 59.5111485,15.4017714 57.3787358,15.4017714 L49.5224786,15.4017714 C55.3585554,15.4017714 58.6132905,13.9792277 60.5212387,12.3378311 C63.2148126,9.93044942 63.3270448,5.66281827 60.6334709,3.25543659 C57.490968,0.51977559 52.6649815,2.38002507 51.2059623,3.14601015 C52.7772137,1.06690779 55.4707876,-0.24620949 58.5010583,0.19149627 C61.6435611,0.629202029 64.3371351,2.81773083 65.1227608,5.88167114 C65.683922,8.07019994 65.234993,10.0398759 64.2249028,11.6812725 L64.2249028,11.0247138 L63.1025803,11.0247138 L63.1025803,13.2132426 L62.9903481,13.2132426 Z" id="Shape"></path>
                    </g>
                </g>
            </g>
        </g>
    </g>
</svg>