<?xml version="1.0" encoding="UTF-8"?>
<svg width="65px" height="74px" viewBox="0 0 65 74" version="1.1" xmlns="http://www.w3.org/2000/svg" xmlns:xlink="http://www.w3.org/1999/xlink">
    <!-- Generator: Sketch 45.2 (43514) - http://www.bohemiancoding.com/sketch -->
    <title>icono-viaje</title>
    <desc>Created with Sketch.</desc>
    <defs></defs>
    <g id="Responsive" stroke="none" stroke-width="1" fill="none" fill-rule="evenodd">
        <g id="Mobile--Responsive" transform="translate(-33.000000, -564.000000)" fill-rule="nonzero">
            <g id="body--index" transform="translate(0.000000, 144.000000)">
                <g id="icono-viaje" transform="translate(33.000000, 420.000000)">
                    <path d="M63.7542307,49.3596683 L63.7542307,61.3523 C63.7542307,63.3705218 62.935171,65.1256291 61.6116641,66.3760005 C60.2881571,67.626372 58.4599144,68.3722962 56.4416926,68.3722962 C56.4416926,70.7957203 54.477565,72.7598479 52.0541408,72.7598479 L13.1514035,72.7598479 C11.9404127,72.7598479 10.8435248,72.2683832 10.0494206,71.4742791 C9.25531646,70.6801749 8.76385181,69.583287 8.76385181,68.3722962 C4.72582133,68.3722962 1.45131371,65.3901862 1.45131371,61.3523 L1.45131371,49.3596683 C1.45131371,46.9362441 3.41544128,44.9721165 5.83886542,44.9721165 L8.76385181,44.9721165 L8.76385181,22.3032917 C8.76385181,20.6433904 9.40591496,19.1355301 10.4559212,18.0108017 C11.6040184,16.7823564 13.2391084,16.014506 15.0526375,16.014506 L50.1529069,16.014506 C52.592343,16.014506 54.7056265,17.4024934 55.7498627,19.4309571 C56.1915606,20.2924267 56.4416926,21.2678549 56.4416926,22.3032917 L56.4416926,44.9722608 L59.3666789,44.9722608 C61.7901031,44.9721165 63.7542307,46.9363884 63.7542307,49.3596683 Z" id="Shape" fill="#A4E276"></path>
                    <rect id="Rectangle-path" fill="#FFFFFF" x="1.15891605" y="5.19189773" width="62.5954589" height="10.8226083"></rect>
                    <g id="Group" transform="translate(1.442514, 16.011910)" fill="#89AA63">
                        <path d="M60.1691497,45.6839974 C58.8456428,46.9343688 57.0174,47.680293 54.9991782,47.680293 C54.9991782,50.1037172 53.0350506,52.0678447 50.6116265,52.0678447 L50.3190846,52.0678447 L50.3190846,41.8303202 C50.3190846,36.9916943 46.3826071,33.0552168 41.5439811,33.0552168 L20.7765345,33.0552168 C15.9379085,33.0552168 12.0014311,36.9916943 12.0014311,41.8303202 L12.0014311,52.0678447 L11.7088892,52.0678447 C10.4978983,52.0678447 9.40101041,51.5763801 8.60690625,50.7822759 C7.81280209,49.9881718 7.32133744,48.8912838 7.32133744,47.680293 C3.28330696,47.680293 0.00879933766,44.6981831 0.00879933766,40.6602968 L0.00879933766,45.3403905 C0.00879933766,49.3784209 3.28330696,52.3603866 7.32133744,52.3603866 C7.32133744,53.5713775 7.81280209,54.6682654 8.60690625,55.4623696 C9.40101041,56.2564737 10.4978983,56.7479384 11.7088892,56.7479384 L50.6116265,56.7479384 C53.0350506,56.7479384 54.9991782,54.7838108 54.9991782,52.3603866 C57.0174,52.3603866 58.8456428,51.6144625 60.1691497,50.364091 C61.4926566,49.1135753 62.3117163,47.3586123 62.3117163,45.3403905 L62.3117163,40.6602968 C62.3117163,42.6786629 61.4928009,44.4336259 60.1691497,45.6839974 Z" id="Shape"></path>
                        <path d="M48.7103925,0.00259652587 L13.6101231,0.00259652587 C11.796594,0.00259652587 10.161504,0.770446926 9.0134068,1.99889216 C9.71879632,5.02225804 11.9924875,7.44928846 14.9262732,8.37379593 L14.9262732,26.3571898 C14.9262732,30.039929 17.9399742,33.1173892 21.6221364,33.0542071 C25.1985623,32.9929002 28.0889283,30.0647403 28.0889283,26.4738893 L28.0889283,12.141355 C28.0889283,10.2835407 29.5949133,8.7775557 31.4527276,8.7775557 L31.4527276,8.7775557 C33.3105419,8.7775557 34.8165269,10.2835407 34.8165269,12.141355 L34.8165269,26.3571898 C34.8165269,30.039929 37.8302279,33.1173892 41.5123901,33.0542071 C45.088816,32.9929002 47.979182,30.0647403 47.979182,26.4738893 L47.979182,8.59998218 C50.8360817,8.01749488 53.1934387,6.04370246 54.3074925,3.41904756 C53.2632564,1.3904396 51.1498286,0.00259652587 48.7103925,0.00259652587 Z" id="Shape"></path>
                    </g>
                    <path d="M56.4416926,8.11688412 L56.4416926,16.014506 L10.2264171,16.014506 L10.2264171,8.11688412 C10.2264171,7.05216426 10.5116022,6.05322306 11.0102794,5.19189773 L55.6578302,5.19189773 C56.1565075,6.05336731 56.4416926,7.05216426 56.4416926,8.11688412 Z" id="Shape" fill="#E0E0E0"></path>
                    <path d="M53.5167062,8.11688412 L53.5167062,16.014506 C53.5167062,18.6338236 51.7953538,20.8509682 49.4216964,21.5954499 C48.8673381,21.7710039 48.278071,21.8644788 47.6667334,21.8644788 L19.0015206,21.8644788 C18.0552311,21.8644788 17.160151,21.6393023 16.3689318,21.2385718 C14.4603411,20.2762705 13.1514035,18.2988718 13.1514035,16.014506 L13.1514035,8.11688412 C13.1514035,6.50083527 14.4603411,5.19189773 16.0763899,5.19189773 L50.5915755,5.19189773 C52.2077686,5.19189773 53.5167062,6.50083527 53.5167062,8.11688412 Z" id="Shape" fill="#A0815C"></path>
                    <g id="Group" transform="translate(13.126881, 5.048800)" fill="#806749">
                        <path d="M36.2948156,13.3291213 C35.7404573,13.5046753 35.1511902,13.5982945 34.5398526,13.5982945 L5.87463978,13.5982945 C4.92835035,13.5982945 4.03327018,13.373118 3.24205105,12.9723875 C1.33346028,12.0100862 0.0245227443,10.0326875 0.0245227443,7.74832169 L0.0245227443,10.96585 C0.0245227443,13.25036 1.33346028,15.2276145 3.24205105,16.1899158 C4.03327018,16.5906463 4.92835035,16.8158228 5.87463978,16.8158228 L34.5398526,16.8158228 C35.1511902,16.8158228 35.7406016,16.7222036 36.2948156,16.5467938 C38.668473,15.8023122 40.3898254,13.5851676 40.3898254,10.96585 L40.3898254,7.74817744 C40.3898254,10.367495 38.668473,12.5846396 36.2948156,13.3291213 Z" id="Shape"></path>
                        <path d="M16.4047062,0.143097426 L16.4047062,16.8156785 L5.87463978,16.8156785 C4.92835035,16.8156785 4.03327018,16.590502 3.24205105,16.1897715 L3.24205105,0.143097426 L16.4047062,0.143097426 Z" id="Shape"></path>
                        <path d="M36.2948156,0.143097426 L36.2948156,16.5466496 C35.7404573,16.7222036 35.1511902,16.8156785 34.5398526,16.8156785 L23.1321605,16.8156785 L23.1321605,0.143097426 L36.2948156,0.143097426 Z" id="Shape"></path>
                    </g>
                    <g id="Group" transform="translate(1.442514, 44.862197)" fill="#A0815C">
                        <path d="M62.3117163,10.3475883 L54.9991782,10.3475883 L54.9991782,0.110063847 L57.9241646,0.110063847 C60.3474445,0.110063847 62.3117163,2.07433567 62.3117163,4.49761556 L62.3117163,10.3475883 Z" id="Shape"></path>
                        <path d="M0.00879933766,10.3475883 L7.32133744,10.3475883 L7.32133744,0.110063847 L4.39635105,0.110063847 C1.97307116,0.110063847 0.00879933766,2.07433567 0.00879933766,4.49761556 L0.00879933766,10.3475883 Z" id="Shape"></path>
                        <path d="M47.3940982,27.8976509 L14.9264175,27.8976509 L14.9264175,12.9800328 C14.9264175,9.74923338 17.5455908,7.13006003 20.7763902,7.13006003 L41.5439811,7.13006003 C44.7747806,7.13006003 47.3939539,9.74923338 47.3939539,12.9800328 L47.3939539,27.8976509 L47.3940982,27.8976509 Z" id="Shape"></path>
                    </g>
                    <rect id="Rectangle-path" fill="#806749" x="16.3689318" y="68.6648381" width="32.4676807" height="4.0950098"></rect>
                    <g id="Group" transform="translate(19.185441, 1.009760)" fill="#A4E276">
                        <path d="M3.76481826,45.1323799 L3.76481826,45.1323799 C1.74558664,45.1323799 0.108477081,43.4954146 0.108477081,41.4760387 L0.108477081,1.54969319 C0.108477081,0.741885141 0.763234354,0.087127868 1.5710424,0.087127868 L5.95859411,0.087127868 C6.76640216,0.087127868 7.42115943,0.741885141 7.42115943,1.54969319 L7.42115943,41.476183 C7.42115943,43.4954146 5.78404987,45.1323799 3.76481826,45.1323799 Z" id="Shape"></path>
                        <path d="M23.6549277,45.1323799 L23.6549277,45.1323799 C21.635696,45.1323799 19.9985865,43.4954146 19.9985865,41.4760387 L19.9985865,1.54969319 C19.9985865,0.741885141 20.6533438,0.087127868 21.4611518,0.087127868 L25.8487035,0.087127868 C26.6565116,0.087127868 27.3112688,0.741885141 27.3112688,1.54969319 L27.3112688,41.476183 C27.3112688,43.4954146 25.6743035,45.1323799 23.6549277,45.1323799 Z" id="Shape"></path>
                    </g>
                    <g id="Group" transform="translate(19.185441, 39.236391)" fill="#89AA63">
                        <path d="M3.76481826,3.68822074 C1.74558664,3.68822074 0.108477081,2.05125544 0.108477081,0.0318795676 L0.108477081,3.24940787 C0.108477081,5.26863949 1.74544239,6.90574905 3.76481826,6.90574905 C5.78404987,6.90574905 7.42115943,5.26878374 7.42115943,3.24940787 L7.42115943,0.0318795676 C7.42115943,2.05125544 5.78404987,3.68822074 3.76481826,3.68822074 Z" id="Shape"></path>
                        <path d="M23.6549277,3.68822074 C21.635696,3.68822074 19.9985865,2.05125544 19.9985865,0.0318795676 L19.9985865,3.24940787 C19.9985865,5.26863949 21.6355518,6.90574905 23.6549277,6.90574905 C25.6741593,6.90574905 27.3112688,5.26878374 27.3112688,3.24940787 L27.3112688,0.0318795676 C27.3112688,2.05125544 25.6743035,3.68822074 23.6549277,3.68822074 Z" id="Shape"></path>
                    </g>
                    <g id="Group" transform="translate(21.637716, 4.183292)" fill="#FFFFFF">
                        <path d="M2.2631608,10.0761071 L0.0693849413,10.0761071 L0.0693849413,8.17487319 L2.2631608,8.17487319 L2.2631608,10.0761071 Z M2.2631608,5.98109734 L0.0693849413,5.98109734 L0.0693849413,0.131124556 L2.2631608,0.131124556 L2.2631608,5.98109734 Z" id="Shape"></path>
                        <path d="M22.4458121,10.0761071 L20.2520363,10.0761071 L20.2520363,8.17487319 L22.4458121,8.17487319 L22.4458121,10.0761071 Z M22.4458121,5.98109734 L20.2520363,5.98109734 L20.2520363,0.131124556 L22.4458121,0.131124556 L22.4458121,5.98109734 Z" id="Shape"></path>
                    </g>
                    <path d="M59.3668232,43.8752286 L57.5387247,43.8752286 L57.5387247,22.3032917 C57.5387247,19.9616581 56.4558292,17.8131772 54.6137383,16.4207181 L54.6137383,8.11688412 C54.6137383,5.89930677 52.8094414,4.0950098 50.591864,4.0950098 L50.591864,6.28878565 C51.6000373,6.28878565 52.4199625,7.10885507 52.4199625,8.11688412 L52.4199625,16.3917236 L52.3595211,16.7703836 C52.0785193,18.5303954 50.7964126,20.0135886 49.0928031,20.5489057 L49.7505896,22.6418498 C51.6630752,22.0407541 53.2126241,20.6213199 54.0145179,18.8289958 C54.8637261,19.7683612 55.3448046,20.9936329 55.3448046,22.3032917 L55.3448046,43.8752286 L55.3448046,56.306529 L55.3448046,68.3722962 C55.3448046,70.1866907 53.8685354,71.66296 52.0541408,71.66296 L49.9335005,71.66296 L49.9335005,57.8422298 C49.9335005,54.0117771 46.8170924,50.8953691 42.9866398,50.8953691 L22.2190489,50.8953691 C18.3885962,50.8953691 15.2721882,54.0117771 15.2721882,57.8422298 L15.2721882,71.66296 L13.1514035,71.66296 C11.3370089,71.66296 9.86073974,70.1866907 9.86073974,68.3722962 L9.86073974,56.306529 L9.86073974,43.8752286 L9.86073974,22.3032917 C9.86073974,20.4674037 10.8083274,18.818177 12.3125814,17.8891977 C12.8336176,19.7422517 14.1144261,21.3288732 15.8744379,22.2176063 L16.8634258,20.2593931 C15.3372455,19.4886577 14.3377273,17.9528126 14.2544943,16.2516554 L14.2429541,16.014506 L14.2484357,16.014506 L14.2484357,8.11688412 C14.2484357,7.10871082 15.0685051,6.28878565 16.0765342,6.28878565 L16.0765342,4.0950098 C13.8589568,4.0950098 12.0546598,5.89930677 12.0546598,8.11688412 L12.0546598,15.5524687 C9.3998564,16.7250886 7.66710813,19.343108 7.66710813,22.3032917 L7.66710813,43.8753729 L5.83886542,43.8753729 C2.81463404,43.8753729 0.354425781,46.3355811 0.354425781,49.3598125 L0.354425781,56.3066732 L0.354425781,61.3523 C0.354425781,65.5774246 3.53848775,68.9508887 7.76736288,69.4132145 C8.25507699,71.9410767 10.4831847,73.8567358 13.1514035,73.8567358 L15.2720439,73.8567358 L49.9335005,73.8567358 L52.0541408,73.8567358 C54.7223597,73.8567358 56.9504674,71.9410767 57.4381815,69.4132145 C61.6670566,68.9508887 64.8511186,65.5774246 64.8511186,61.3523 L64.8511186,56.3066732 L64.8511186,49.3598125 C64.8511186,46.3355811 62.3909103,43.8752286 59.3668232,43.8752286 Z M2.54820164,49.3596683 C2.54820164,47.5452737 4.02447084,46.0690045 5.83886542,46.0690045 L7.66696388,46.0690045 L7.66696388,54.1127531 L2.54820164,54.1127531 L2.54820164,49.3596683 Z M2.54820164,61.3523 L2.54820164,56.3066732 L7.66696388,56.3066732 L7.66696388,67.1915982 C4.68326716,66.7255218 2.54820164,64.3706171 2.54820164,61.3523 Z M17.4658198,71.66296 L17.4658198,57.8422298 C17.4658198,55.2213254 19.5980002,53.0891449 22.2190489,53.0891449 L42.9866398,53.0891449 C45.6075441,53.0891449 47.7398689,55.2213254 47.7398689,57.8422298 L47.7398689,71.66296 L17.4658198,71.66296 Z M59.3668232,46.0690045 C61.1812178,46.0690045 62.657487,47.5452737 62.657487,49.3596683 L62.657487,54.1128974 L57.5387247,54.1128974 L57.5387247,46.0691487 L59.3668232,46.0691487 L59.3668232,46.0690045 Z M62.6573427,61.3523 C62.6573427,64.3706171 60.5224215,66.7255218 57.5385805,67.1914539 L57.5385805,56.306529 L62.6573427,56.306529 L62.6573427,61.3523 Z" id="Shape" fill="#42210B"></path>
                    <rect id="Rectangle-path" fill="#42210B" x="21.9996424" y="39.8533543" width="2.19377586" height="2.19377586"></rect>
                    <path d="M15.2720439,39.1221438 L15.2720439,42.8514762 L18.2126094,42.8514762 C18.4001363,45.3020196 20.4524015,47.2390279 22.9502594,47.2390279 C25.3478625,47.2390279 27.3353588,45.4544933 27.656751,43.1440181 L30.335933,43.1440181 L30.335933,39.1221438 C30.335933,37.710932 29.1876915,36.5626905 27.7764797,36.5626905 L27.7033442,36.5626905 L27.7033442,2.55945325 C27.7034885,1.14824144 26.5552471,0 25.1440353,0 L20.7564835,0 C19.3452717,0 18.1970303,1.14824144 18.1970303,2.55945325 L18.1970303,36.5628348 L17.8313529,36.5628348 C16.4202853,36.5626905 15.2720439,37.710932 15.2720439,39.1221438 Z M22.9502594,45.045252 C21.5390476,45.045252 20.3908061,43.8970106 20.3908061,42.4857988 L20.3908061,38.7564664 L25.5095684,38.7564664 L25.5095684,42.4857988 C25.5097126,43.8970106 24.3614712,45.045252 22.9502594,45.045252 Z M27.7764797,38.7564664 C27.9781432,38.7564664 28.1421571,38.9204803 28.1421571,39.1221438 L28.1421571,40.9502422 L27.7033442,40.9502422 L27.7033442,38.7564664 L27.7764797,38.7564664 Z M20.3908061,2.55945325 C20.3908061,2.35778974 20.55482,2.19377586 20.7564835,2.19377586 L25.1440353,2.19377586 C25.3456988,2.19377586 25.5097126,2.35778974 25.5097126,2.55945325 L25.5097126,36.5628348 L24.1934183,36.5628348 L24.1934183,31.517208 L21.9996424,31.517208 L21.9996424,36.5628348 L20.3909504,36.5628348 L20.3909504,2.55945325 L20.3908061,2.55945325 Z M18.1971745,40.6577003 L17.465964,40.6577003 L17.465964,39.1219995 C17.465964,38.920336 17.6299779,38.7563221 17.8316414,38.7563221 L18.1973188,38.7563221 L18.1973188,40.6577003 L18.1971745,40.6577003 Z" id="Shape" fill="#42210B"></path>
                    <rect id="Rectangle-path" fill="#42210B" x="41.8897518" y="39.8533543" width="2.19377586" height="2.19377586"></rect>
                    <path d="M35.1621533,39.1221438 L35.1621533,42.8514762 L38.1027189,42.8514762 C38.2902457,45.3020196 40.3425109,47.2390279 42.8403688,47.2390279 C45.2379719,47.2390279 47.2254682,45.4544933 47.5468604,43.1440181 L50.2260424,43.1440181 L50.2260424,39.1221438 C50.2260424,37.710932 49.0778009,36.5626905 47.6665891,36.5626905 L47.5934537,36.5626905 L47.5934537,2.55945325 C47.5935979,1.14824144 46.4453565,0 45.0341447,0 L40.6465929,0 C39.2353811,0 38.0871397,1.14824144 38.0871397,2.55945325 L38.0871397,36.5628348 L37.7214623,36.5628348 C36.3103947,36.5626905 35.1621533,37.710932 35.1621533,39.1221438 Z M42.8403688,45.045252 C41.429157,45.045252 40.2809156,43.8970106 40.2809156,42.4857988 L40.2809156,38.7564664 L45.3996778,38.7564664 L45.3996778,42.4857988 C45.3998221,43.8970106 44.2515806,45.045252 42.8403688,45.045252 Z M47.6667334,38.7564664 C47.8683969,38.7564664 48.0324108,38.9204803 48.0324108,39.1221438 L48.0324108,40.9502422 L47.5935979,40.9502422 L47.5935979,38.7564664 L47.6667334,38.7564664 Z M40.2810598,2.55945325 C40.2810598,2.35778974 40.4450737,2.19377586 40.6467372,2.19377586 L45.0342889,2.19377586 C45.2359524,2.19377586 45.3999663,2.35778974 45.3999663,2.55945325 L45.3999663,36.5628348 L44.0836719,36.5628348 L44.0836719,31.517208 L41.8898961,31.517208 L41.8898961,36.5628348 L40.2812041,36.5628348 L40.2812041,2.55945325 L40.2810598,2.55945325 Z M38.087284,40.6577003 L37.3560734,40.6577003 L37.3560734,39.1219995 C37.3560734,38.920336 37.5200873,38.7563221 37.7217508,38.7563221 L38.0874282,38.7563221 L38.0874282,40.6577003 L38.087284,40.6577003 Z" id="Shape" fill="#42210B"></path>
                    <rect id="Rectangle-path" fill="#42210B" x="19.6595956" y="67.6279588" width="2.19377586" height="1.95229895"></rect>
                    <rect id="Rectangle-path" fill="#42210B" x="19.6595956" y="59.5592546" width="2.19377586" height="1.95229895"></rect>
                    <rect id="Rectangle-path" fill="#42210B" x="19.6595956" y="63.5942558" width="2.19377586" height="1.95229895"></rect>
                    <rect id="Rectangle-path" fill="#42210B" x="38.5917312" y="55.2829208" width="2.30340695" height="2.19377586"></rect>
                    <rect id="Rectangle-path" fill="#42210B" x="24.3104062" y="55.2829208" width="2.30340695" height="2.19377586"></rect>
                    <rect id="Rectangle-path" fill="#42210B" x="29.0708479" y="55.2829208" width="2.30340695" height="2.19377586"></rect>
                    <rect id="Rectangle-path" fill="#42210B" x="33.8312895" y="55.2829208" width="2.30340695" height="2.19377586"></rect>
                    <rect id="Rectangle-path" fill="#42210B" x="43.3523172" y="67.6279588" width="2.19377586" height="1.95229895"></rect>
                    <rect id="Rectangle-path" fill="#42210B" x="43.3523172" y="63.5928133" width="2.19377586" height="1.95229895"></rect>
                    <rect id="Rectangle-path" fill="#42210B" x="43.3523172" y="59.5592546" width="2.19377586" height="1.95229895"></rect>
                    <polygon id="Shape" fill="#42210B" points="7.59397266 14.9176181 2.25580397 14.9176181 2.25580397 6.28878565 10.518959 6.28878565 10.518959 4.0950098 0.062028118 4.0950098 0.062028118 17.111394 7.59397266 17.111394"></polygon>
                    <polygon id="Shape" fill="#42210B" points="56.4416926 4.0950098 56.4416926 6.28878565 62.6573427 6.28878565 62.6573427 14.9176181 57.3191741 14.9176181 57.3191741 17.111394 64.8511186 17.111394 64.8511186 4.0950098"></polygon>
                    <rect id="Rectangle-path" fill="#42210B" x="29.531587" y="4.0950098" width="6.72759852" height="2.19377586"></rect>
                    <rect id="Rectangle-path" fill="#42210B" x="29.531587" y="20.7675909" width="6.72759852" height="2.19377586"></rect>
                </g>
            </g>
        </g>
    </g>
</svg>