<?xml version="1.0" encoding="UTF-8"?>
<svg width="74px" height="75px" viewBox="0 0 74 75" version="1.1" xmlns="http://www.w3.org/2000/svg" xmlns:xlink="http://www.w3.org/1999/xlink">
    <!-- Generator: Sketch 45.2 (43514) - http://www.bohemiancoding.com/sketch -->
    <title>icono-atraciones</title>
    <desc>Created with Sketch.</desc>
    <defs></defs>
    <g id="Responsive" stroke="none" stroke-width="1" fill="none" fill-rule="evenodd">
        <g id="Mobile--Responsive" transform="translate(-28.000000, -460.000000)" fill-rule="nonzero">
            <g id="body--index" transform="translate(0.000000, 144.000000)">
                <g id="icono-atraciones" transform="translate(28.000000, 316.000000)">
                    <path d="M66.4947147,24.3422985 C65.5827765,24.3422985 64.7205805,24.7066051 64.0573528,25.3855399 C63.8583844,25.5842526 63.7589003,25.5842526 63.6925775,25.5842526 L63.6925775,25.5842526 C63.6594161,25.5842526 63.609674,25.5842526 63.559932,25.5676932 C63.4107057,25.5014556 63.2283181,25.3193024 63.178576,25.1868273 C62.531929,23.1334633 60.64173,21.6927967 58.5359819,21.6927967 L56.1649428,21.6927967 L61.7692171,31.297241 L66.4947147,31.297241 C68.4180751,31.297241 69.9766602,29.7406586 69.9766602,27.8197698 C69.9766602,25.8988809 68.4014944,24.3422985 66.4947147,24.3422985 Z" id="Shape" fill="#D9CDC1"></path>
                    <path d="M49.3336972,13.5124596 L55.3027467,23.8455169 L49.7316338,23.8455169 L50.5275071,21.5934403 C50.6601526,21.1960151 50.5275071,20.7985898 50.3948615,20.4011645 C49.9969249,20.0037392 49.5989883,19.8712641 49.2010516,19.8712641 L46.2828496,19.8712641 L49.3336972,13.5124596 Z" id="Shape" fill="#FFF8EF"></path>
                    <path d="M62.4656062,42.3920301 L62.4656062,39.7425282 L58.4862398,39.7425282 L58.4862398,42.3920301 L62.4656062,42.3920301 Z M40.048509,33.2512486 L45.0890397,22.520766 L47.344014,22.520766 L46.5481407,24.7728426 C46.4154952,25.1702679 46.5481407,25.5676932 46.6807863,25.9651184 C46.9460774,26.3625437 47.344014,26.4950188 47.7419506,26.4950188 L56.7618477,26.4950188 L66.7102637,43.7167811 L44.6911031,43.7167811 L44.0278754,42.3920301 L55.8333289,42.3920301 L55.8333289,39.7425282 L42.966711,39.7425282 L40.048509,33.2512486 Z" id="Shape" fill="#67BC34"></path>
                    <path d="M39.1365709,13.5952565 C38.7883763,12.0386742 37.4287595,10.962314 35.8038515,10.962314 C34.427654,10.962314 33.2006827,11.7902834 32.6535198,13.0487968 L32.6369391,13.0819155 L32.6203584,13.1150343 C32.587197,13.2143906 32.5042936,13.313747 32.4379708,13.3468657 C32.1892604,13.3468657 31.9239693,13.2475094 31.8742272,13.1978313 L31.4762906,12.800406 L30.1332544,13.744291 L31.3270643,16.2613178 L32.0731955,16.4765898 L36.1852075,16.4765898 C36.6494669,16.4765898 37.0308228,16.2778772 37.345856,16.1288427 L37.4619208,16.0626052 L37.5282436,15.9963676 C37.5282436,15.9963676 37.5282436,15.9963676 37.5448243,15.9963676 C37.6443085,15.9466895 37.7935347,15.8638925 37.9593416,15.714858 L38.1417293,15.5327048 C38.5562466,15.2677546 38.7552149,14.8703293 38.9044411,14.5722604 L38.9873446,14.3901071 L38.9873446,14.3238696 C39.0370867,14.2079538 39.1199902,14.0258006 39.1199902,13.7939692 L39.1199902,13.7111722 L39.1365709,13.5952565 Z" id="Shape" fill="#FFF8EF"></path>
                    <path d="M38.589408,13.2475094 C38.589408,13.5124596 38.589408,13.6449347 38.4567624,13.9098849 C38.1914713,12.717609 37.130307,11.9227585 35.9364971,11.9227585 C34.8753327,11.9227585 33.9468139,12.5851339 33.5488772,13.5124596 C33.4162317,13.9098849 33.0182951,14.1748351 32.6203584,14.3073102 C32.2224218,14.4397853 31.6918396,14.3073102 31.4265485,13.9098849 L31.1612574,13.6449347 L31.0286119,13.5124596 L29.9674475,11.9558772 L30.6306752,11.9227585 C30.7633208,11.9227585 30.7633208,11.9227585 30.7633208,11.9227585 C30.7633208,11.9227585 30.8959663,12.0552336 31.0286119,12.1877087 L31.293903,12.4526588 C31.5591941,12.717609 32.0897762,12.8500841 32.4877129,12.8500841 C32.8856495,12.8500841 33.2835861,12.4526588 33.4162317,12.0552336 C33.8141683,11.1279079 34.7426871,10.4655324 35.8038515,10.4655324 C37.3955981,10.5980075 38.589408,11.7902834 38.589408,13.2475094 Z" id="Shape" fill="#D9CDC1"></path>
                    <path d="M37.2629525,71.5365508 C32.3550673,71.5365508 27.5798277,70.4767501 23.0698791,68.7545739 C24.3963346,68.4896237 25.3248534,67.8272482 25.9880811,67.4298229 C26.9165999,66.7674474 27.7124732,66.3700222 29.3042198,66.3700222 C30.8959663,66.3700222 31.5591941,66.8999225 32.4877129,67.4298229 C33.5488772,68.0921984 34.8753327,69.019524 37.130307,69.019524 C39.5179268,69.019524 40.8443823,68.0921984 41.9055466,67.4298229 C42.8340654,66.7674474 43.4972932,66.3700222 45.0890397,66.3700222 C46.6807863,66.3700222 47.4766595,66.8999225 48.2725328,67.4298229 C49.0684061,67.9597233 49.8642794,68.4896237 51.1907348,68.7545739 C46.9460774,70.4767501 42.1708377,71.5365508 37.2629525,71.5365508 Z" id="Shape" fill="#B37D4D"></path>
                    <path d="M23.9983979,4.5041532 L30.3653841,18.5465132 L24.5289801,18.5465132 L25.3248534,16.2944366 C25.4574989,15.8970113 25.3248534,15.499586 25.1922079,15.1021607 C24.7942712,14.7047354 24.3963346,14.5722604 23.9983979,14.5722604 L19.2231583,14.5722604 L23.9983979,4.5041532 Z" id="Shape" fill="#FFF8EF"></path>
                    <path d="M37.2629525,58.2890414 C35.0079782,58.2890414 33.9468139,57.759141 32.753004,57.0967656 C31.4265485,56.4343901 29.9674475,55.6395395 27.0492455,55.6395395 C24.1310435,55.6395395 22.6719425,56.4343901 21.345487,57.0967656 C20.1516771,57.759141 19.0905128,58.2890414 16.8355385,58.2890414 C14.5805642,58.2890414 13.6520454,57.759141 12.3255899,57.0967656 C10.9991345,56.4343901 9.54003346,55.6395395 6.62183145,55.6395395 C5.69331263,54.3147886 4.89743936,52.9900377 4.23421163,51.6652867 L70.0264023,51.6652867 C69.3631746,52.9900377 68.4346558,54.3147886 67.6387825,55.6395395 C64.853226,55.6395395 63.2614795,56.4343901 61.935024,57.0967656 C60.8738597,57.759141 59.8126953,58.2890414 57.557721,58.2890414 C55.3027467,58.2890414 54.2415824,57.759141 53.0477725,57.0967656 C51.721317,56.4343901 50.262216,55.6395395 47.344014,55.6395395 C44.425812,55.6395395 42.966711,56.4343901 41.6402555,57.0967656 C40.5790912,57.759141 39.5179268,58.2890414 37.2629525,58.2890414 Z" id="Shape" fill="#7AC943"></path>
                    <path d="M17.5447674,31.7940226 C17.5447674,31.9264977 17.2334751,32.1914479 17.2334751,32.323923 C17.2334751,32.1914479 17.2334751,31.9264977 17.5447674,31.7940226 Z" id="Shape" fill="#FFF8EF"></path>
                    <path d="M37.2629525,60.9385433 C40.1811545,60.9385433 41.6402555,60.1436927 42.966711,59.4813173 C44.1605209,58.8189418 45.2216853,58.2890414 47.4766595,58.2890414 C49.7316338,58.2890414 50.7927982,58.8189418 51.9866081,59.4813173 C53.3130636,60.1436927 54.7721646,60.9385433 57.6903666,60.9385433 C60.6085686,60.9385433 62.0676696,60.1436927 63.394125,59.4813173 C64.0573528,59.083892 64.7205805,58.8189418 65.5164538,58.5539916 C63.9247072,60.4086429 62.0676696,62.1308191 60.2106319,63.5880452 C58.4862398,63.8529954 57.4250755,64.5153708 56.4965567,65.0452712 C55.5680378,65.7076467 54.7721646,66.2375471 53.180418,66.2375471 C51.5886715,66.2375471 50.7927982,65.7076467 49.8642794,65.1777463 C48.9357605,64.5153708 47.6093051,63.5880452 45.2216853,63.5880452 C42.8340654,63.5880452 41.50761,64.5153708 40.4464456,65.1777463 C39.5179268,65.7076467 38.8546991,66.2375471 37.2629525,66.2375471 C35.671206,66.2375471 35.0079782,65.7076467 34.0794594,65.1777463 C33.0182951,64.5153708 31.6918396,63.5880452 29.3042198,63.5880452 C26.9165999,63.5880452 25.5901445,64.5153708 24.5289801,65.1777463 C23.6004613,65.7076467 22.9372336,66.2375471 21.345487,66.2375471 C19.7537405,66.2375471 18.9578672,65.7076467 18.0293484,65.1777463 C17.2334751,64.6478459 16.1723107,63.8529954 14.3152731,63.7205203 C12.3255899,62.2632942 10.6011978,60.541118 9.00945127,58.6864667 C9.80532455,58.9514169 10.4685523,59.2163671 11.13178,59.6137924 C12.4582355,60.2761678 13.9173365,61.0710184 16.8355385,61.0710184 C19.7537405,61.0710184 21.2128415,60.2761678 22.5392969,59.6137924 C23.7331069,58.9514169 24.7942712,58.4215165 27.0492455,58.4215165 C29.3042198,58.4215165 30.3653841,58.9514169 31.5591941,59.6137924 C32.8856495,60.1436927 34.3447505,60.9385433 37.2629525,60.9385433 Z" id="Shape" fill="#2FB4C2"></path>
                    <g id="Group" transform="translate(1.658069, 11.591571)" fill="#FFF8EF">
                        <path d="M16.5039246,19.9871798 C15.9899231,18.0994097 14.2489503,16.7249806 12.3919127,16.7249806 C11.2478449,16.7249806 10.3359067,17.1886435 9.80532455,17.6523063 C9.73900178,17.6854251 9.672679,17.7019845 9.63951762,17.7019845 L9.54003346,17.6523063 L9.34106514,17.6523063 C9.29132306,17.6523063 9.14209682,17.5032718 9.04261266,17.4039155 C8.06435176,16.1288427 6.62183145,15.4002297 5.09640767,15.4002297 C2.8248527,15.4002297 0.851750211,16.9733714 0.188522482,19.308245 L0.155361095,19.4241607 L0.155361095,19.5400764 C0.155361095,19.7884672 0.238264562,19.9706204 0.304587334,20.0865361 C0.337748721,20.25213 0.387490801,20.4011645 0.43723288,20.4839614 C0.453813573,20.6495553 0.520136346,20.765471 0.553297733,20.8648273 L0.553297733,21.0800994 L0.768846745,21.2953714 C0.768846745,21.2953714 0.768846745,21.2953714 0.768846745,21.3119308 C0.802008131,21.3781683 0.851750211,21.494084 0.95123437,21.6099997 C1.10046061,21.8915093 1.29942893,22.2392564 1.66420418,22.4710878 L2.1118829,22.9181913 C2.17820567,22.9844288 2.3440126,23.1334633 2.55956161,23.2162602 C2.74194924,23.3487353 2.92433686,23.4315323 3.22278934,23.4315323 L3.35543489,23.4315323 C3.47149974,23.4812104 3.65388736,23.5640074 3.88601707,23.5640074 C3.91917846,23.5640074 4.01866262,23.5971261 4.08498539,23.6136855 C4.25079232,23.6468043 4.44976064,23.6964825 4.68189034,23.6964825 L12.6406231,23.6964825 C13.7017875,23.6964825 14.696629,23.3156166 15.3432761,22.6532411 L15.7412127,22.2558158 C15.9070197,22.0902219 15.9899231,21.9411875 16.0230845,21.8418311 C16.0230845,21.8418311 16.0230845,21.8418311 16.0230845,21.8252718 L16.2386335,21.6099997 L16.2386335,21.3947277 C16.2883756,21.278812 16.3712791,21.0966587 16.3712791,20.8648273 L16.3712791,20.7985898 C16.3712791,20.7820304 16.3878598,20.7489116 16.3878598,20.7323522 C16.4376018,20.5833178 16.5039246,20.4011645 16.5039246,20.2024519 L16.5039246,20.0865361 L16.5039246,19.9871798 Z" id="Shape"></path>
                        <path d="M48.0238224,9.27325659 C48.0901452,9.47196923 48.1233066,9.6375631 48.0901452,9.72036003 L46.8963353,13.0819155 L55.070617,13.0819155 L47.5927244,0.149034481 L43.3149055,9.10766272 L47.5429823,9.10766272 C47.6756279,9.10766272 47.8248541,9.12422211 48.0238224,9.27325659 Z" id="Shape"></path>
                    </g>
                    <path d="M55.0042943,40.5704976 L55.0042943,41.5640608 L42.6848392,41.5640608 L44.1771016,44.5447504 L68.1362033,44.5447504 L57.2261072,25.6670495 L47.7253699,25.6670495 C47.5429823,25.6670495 47.4600788,25.6173713 47.4103368,25.5676932 C47.344014,25.3524211 47.2776912,25.1537085 47.3108526,25.0377928 L48.5046625,21.6762373 L44.5584575,21.6762373 L39.1365709,33.2346892 L42.4361288,40.5539382 L55.0042943,40.5539382 L55.0042943,40.5704976 L55.0042943,40.5704976 Z M59.3152745,40.5704976 L61.6365715,40.5704976 L61.6365715,41.5640608 L59.3152745,41.5640608 L59.3152745,40.5704976 Z" id="Shape" fill="#7AC943"></path>
                    <path d="M48.7367922,66.7343287 C47.8911769,66.1713095 46.9294967,65.5420528 45.0890397,65.5420528 C43.2817442,65.5420528 42.4361288,66.0388344 41.4412872,66.7343287 L41.2754803,66.833685 C40.2806387,67.4629417 39.1365709,68.1749953 37.130307,68.1749953 C35.2566886,68.1749953 34.1292015,67.4629417 33.1343599,66.833685 L32.9353916,66.7012099 L32.9022302,66.6846505 C32.7861653,66.618413 32.6701005,66.5521754 32.5706163,66.4859379 C31.7581624,66.0057156 30.9291277,65.508934 29.3042198,65.508934 C27.563247,65.508934 26.6015668,65.9394781 25.5404024,66.7012099 C25.4574989,66.7508881 25.3745955,66.8005662 25.2751113,66.8668038 C24.6616257,67.2476697 23.9154945,67.7113325 22.9206529,67.9100451 L20.101935,68.4730643 L22.7880073,69.4997463 C27.7124732,71.3875163 32.587197,72.3314014 37.2795332,72.3314014 C42.0050308,72.3314014 46.9294967,71.3543976 51.5223487,69.4831869 L54.0757754,68.4399455 L51.3731224,67.8934857 C50.1793125,67.7113325 49.5160848,67.264229 48.7367922,66.7343287 Z" id="Shape" fill="#B37D4D"></path>
                    <path d="M24.479238,15.5658236 C24.5455608,15.7645362 24.5787222,15.9301301 24.5455608,16.012927 L23.3517509,19.3744825 L31.6420975,19.3744825 L24.0149786,2.53358618 L17.9132835,15.4002297 L23.9983979,15.4002297 C24.1310435,15.4002297 24.2802697,15.4167891 24.479238,15.5658236 Z" id="Shape" fill="#FFF8EF"></path>
                    <path d="M2.89117548,50.8373174 L3.48808043,52.0295932 C4.16788885,53.3874629 4.99692352,54.761892 5.94202303,56.1032024 L6.19073343,56.4509495 L6.62183145,56.4509495 C9.22500029,56.4509495 10.5348751,57.0967656 11.7950077,57.7425817 L12.1763637,57.9247349 C13.4364964,58.5539916 14.5142414,59.1004514 16.8521192,59.1004514 C19.2231583,59.1004514 20.4335489,58.5374322 21.7434237,57.8088192 L21.8926499,57.7260223 C23.1527826,57.0967656 24.4626574,56.4343901 27.0658262,56.4343901 C29.668995,56.4343901 30.9788698,57.0802062 32.2390025,57.7260223 L32.3882287,57.8088192 C33.6981035,58.5374322 34.9084941,59.1004514 37.2795332,59.1004514 C39.7500565,59.1004514 40.9604471,58.4877541 42.0547729,57.8088192 L42.1874184,57.7425817 C43.4475511,57.113325 44.7574259,56.4509495 47.3605947,56.4509495 C49.9637635,56.4509495 51.2736383,57.0967656 52.533771,57.7425817 L52.6829972,57.8253786 C53.992872,58.5539916 55.2032626,59.1170108 57.5743017,59.1170108 C60.044825,59.1170108 61.2552156,58.5043134 62.3495414,57.8253786 C63.6262547,57.1795625 65.0853557,56.4675089 67.6553632,56.4675089 L68.1196226,56.4675089 L68.368333,56.0700836 C68.6336241,55.6395395 68.9154959,55.1924361 69.180787,54.761892 C69.7445305,53.8842445 70.3248548,52.9569189 70.7891142,52.0461526 L71.3860192,50.8538768 L2.89117548,50.8538768 L2.89117548,50.8373174 Z" id="Shape" fill="#7AC943"></path>
                    <path d="M62.9961884,58.7527042 L62.8635428,58.8189418 C61.6034102,59.4481985 60.2935354,60.110574 57.6903666,60.110574 C55.0871977,60.110574 53.777323,59.4647579 52.5171903,58.8189418 L52.367964,58.7361449 C51.0580893,58.0075318 49.8476987,57.4445127 47.4766595,57.4445127 C45.1056204,57.4445127 43.8952298,58.0075318 42.585355,58.7361449 L42.4361288,58.8189418 C41.1759961,59.4481985 39.8661214,60.110574 37.2629525,60.110574 C34.8919134,60.110574 33.5654579,59.5641142 32.4048094,59.0673326 C32.2390025,59.001095 32.0731955,58.9348575 31.9239693,58.86862 C30.6140945,58.1400069 29.4202846,57.5935472 27.0492455,57.5935472 C24.6782064,57.5935472 23.4678158,58.1565663 22.157941,58.8851793 L22.0087148,58.9514169 C20.7485821,59.5806736 19.4387073,60.2430491 16.8355385,60.2430491 C14.2323696,60.2430491 12.9224949,59.597233 11.6623622,58.9514169 L11.5297166,58.8851793 C10.7504241,58.4215165 9.97113148,58.1400069 9.27474237,57.8916161 L6.43944383,56.9642905 L8.37938493,59.2329265 C10.2032612,61.3690874 11.9939761,63.0581448 13.8178523,64.3994551 L14.0168206,64.5484896 L14.2489503,64.565049 C15.7577934,64.6809647 16.6697315,65.2771026 17.399282,65.7738842 L17.5982504,65.9063593 L17.8137994,66.0388344 C18.7091568,66.5521754 19.6542563,67.0986352 21.345487,67.0986352 C22.970395,67.0986352 23.7994296,66.6018536 24.6118836,66.1216314 C24.7279484,66.0553938 24.8274326,65.9891563 24.9434975,65.9229187 L24.9600781,65.9229187 L25.1590465,65.7904436 C26.1538881,65.1611869 27.2979559,64.4491333 29.3042198,64.4491333 C31.3104837,64.4491333 32.4545515,65.1611869 33.4493931,65.7904436 L33.6317807,65.9063593 L33.6649421,65.9229187 C33.7810069,65.9891563 33.8970718,66.0553938 33.996556,66.1216314 C34.8090099,66.6018536 35.6380446,67.0986352 37.2629525,67.0986352 C38.8878605,67.0986352 39.7168951,66.6018536 40.5293491,66.1216314 C40.6454139,66.0553938 40.7448981,65.9891563 40.8609629,65.9229187 L40.8775436,65.9229187 L41.076512,65.7904436 C42.0713536,65.1611869 43.2154214,64.4491333 45.2216853,64.4491333 C47.3771754,64.4491333 48.5378239,65.2771026 49.3834393,65.8897999 L49.4166006,65.9063593 L49.6487304,66.0388344 C50.5440878,66.5521754 51.4891873,67.0986352 53.180418,67.0986352 C55.070617,67.0986352 56.0654586,66.4031409 56.9442354,65.7738842 L57.0934616,65.6910873 C57.9722383,65.1943057 58.8675958,64.6644053 60.3266968,64.4491333 L60.5422458,64.4160145 L60.7080527,64.2835394 C62.7308973,62.6938383 64.6045156,60.9219839 66.1299394,59.1335701 L68.0864612,56.8649342 L65.2511627,57.8088192 C64.5381929,58.0075318 63.775481,58.2890414 62.9961884,58.7527042 Z" id="Shape" fill="#2FB4C2"></path>
                    <g id="Group" transform="translate(2.155490, 16.228199)" fill="#7AC943">
                        <path d="M29.8016406,4.13984669 L20.3838068,4.13984669 C20.2014192,4.13984669 20.1185157,4.09016853 20.0687737,4.04049037 C20.0024509,3.82521834 19.9361281,3.6265057 19.9692895,3.51058999 L21.1630994,0.149034481 L15.2106305,0.149034481 L10.7172627,9.75347881 L12.0271374,9.75347881 C14.7961132,9.75347881 17.0345068,12.0552336 17.0345068,14.8868887 C17.0345068,17.768222 14.7795325,20.0202986 11.8944919,20.0202986 L4.93060074,20.0202986 L3.13988587,23.0009882 L26.319695,23.0009882 L26.319695,23.9945514 L2.67562646,23.9945514 L0.0890383226,28.299992 L40.7780595,28.299992 L29.8016406,4.13984669 Z M30.6306752,24.0111108 L30.6306752,23.0175476 L32.9519723,23.0175476 L32.9519723,24.0111108 L30.6306752,24.0111108 Z" id="Shape"></path>
                        <path d="M29.8016406,22.1895783 L29.8016406,24.8390801 L33.7810069,24.8390801 L33.7810069,22.1895783 L29.8016406,22.1895783 Z M11.8944919,20.8648273 C15.2106305,20.8648273 17.8635415,18.2153254 17.8635415,14.9034481 C17.8635415,11.5915707 15.2106305,8.94206885 12.0271374,8.94206885 L15.7412127,0.993563206 L19.9858702,0.993563206 L19.1899969,3.24563981 C19.0573514,3.64306509 19.1899969,4.04049037 19.3226425,4.43791565 C19.5879335,4.83534094 19.9858702,4.96781603 20.3838068,4.96781603 L29.2710584,4.96781603 L39.4847654,27.488582 L1.94607596,27.488582 L1.54813933,27.488582 L3.13988587,24.8390801 L27.1487297,24.8390801 L27.1487297,22.1895783 L4.59898688,22.1895783 L5.39486015,20.8648273 L11.2312642,20.8648273 C11.3639097,20.8648273 11.3639097,20.8648273 11.4965553,20.8648273 C11.6292008,20.8648273 11.7618463,20.8648273 11.8944919,20.8648273 Z" id="Shape"></path>
                    </g>
                    <g id="Group" transform="translate(2.487104, 25.998237)" fill="#D9CDC1">
                        <path d="M0.95123437,6.59063593 C1.08387992,6.85558612 1.34917101,7.12053631 1.48181655,7.2530114 C1.21652546,7.12053631 1.08387992,6.85558612 0.95123437,6.59063593 Z" id="Shape"></path>
                        <path d="M0.685943278,6.19321065 C0.880500936,6.32568574 0.880500936,6.45816084 1.07505859,6.59063593 C0.880500936,6.45816084 0.880500936,6.32568574 0.685943278,6.19321065 Z" id="Shape"></path>
                        <path d="M0.420652187,5.53083518 C0.420652187,5.66331027 0.420652187,5.79578537 0.731944439,5.92826046 C0.731944439,5.66331027 0.420652187,5.66331027 0.420652187,5.53083518 Z" id="Shape"></path>
                        <path d="M4.06840469,0 C5.39486015,0 6.58867006,0.761731791 7.38454334,1.82153254 C7.64983443,2.08648273 7.89854483,2.45078924 8.29648147,2.45078924 C8.6944181,2.45078924 8.82706365,2.43422985 9.09235474,2.16927967 C9.49029138,1.77185438 10.5514557,1.63937929 11.4799746,1.63937929 C13.3370122,1.63937929 14.7961132,3.09660533 14.7961132,4.95125664 C14.7961132,5.21620683 14.7961132,5.34868193 14.7961132,5.61363211 C14.5308221,4.15640608 13.2043667,2.96413023 11.4799746,2.96413023 C10.5514557,2.96413023 9.88822801,3.36155551 9.35764583,3.7589808 C9.09235474,4.02393098 8.6944181,4.15640608 8.29648147,4.02393098 C7.89854483,3.89145589 7.63325374,3.7589808 7.36796265,3.49403061 C6.57208937,2.43422985 5.37827946,1.77185438 4.051824,1.77185438 C2.06214082,1.77185438 0.470394267,3.22908042 0.205103175,5.08373174 C0.0724576294,4.81878155 0.0724576294,4.68630645 0.0724576294,4.42135627 C0.0890383226,2.30175476 1.81343042,0 4.06840469,0 Z" id="Shape"></path>
                    </g>
                    <g id="Group" transform="translate(27.523951, 20.368046)" fill="#67BC34">
                        <polygon id="Shape" points="0.453813573 0.827969338 4.56582549 18.0497316 8.41254632 18.0497316 8.41254632 20.6992335 5.09640767 20.6992335 5.7596354 23.3487353 14.3815959 23.3487353 4.03524331 0.827969338"></polygon>
                        <polygon id="Shape" points="5.22905322 0 0.0724576294 0 4.58240618 18.8777009 8.24673939 18.8777009 8.24673939 19.8712641 4.69847104 19.8712641 5.7762161 24.1767047 16.3381177 24.1767047"></polygon>
                    </g>
                    <polygon id="Shape" fill="#D9CDC1" points="25.6564673 3.64306509 23.5507192 2.98068962 27.4471821 19.3744825 32.3219059 19.3744825"></polygon>
                    <g id="Group" transform="translate(52.726604, 25.667049)" fill="#67BC34">
                        <path d="M5.47776362,0 L0.155361095,0 L5.97518442,18.8777009 L16.3878598,18.8777009 L5.47776362,0 Z M7.41770473,15.8970113 L7.41770473,14.9034481 L9.73900178,14.9034481 L9.73900178,15.8970113 L7.41770473,15.8970113 Z" id="Shape"></path>
                        <path d="M0.453813573,0.827969338 L5.7596354,18.0497316 L14.1163048,18.0497316 L4.16788885,0.827969338 L0.453813573,0.827969338 Z M5.7596354,14.0754788 L9.73900178,14.0754788 L9.73900178,16.7249806 L5.7596354,16.7249806 L5.7596354,14.0754788 Z" id="Shape"></path>
                    </g>
                    <polygon id="Shape" fill="#D9CDC1" points="49.3336972 13.5124596 52.3845447 23.8455169 55.3027467 23.8455169"></polygon>
                    <path d="M69.4129167,28.515264 C69.0647221,26.9586817 68.2356874,25.8326434 66.1631008,25.8326434 C65.3009047,25.8326434 64.7703226,26.7268502 63.8086424,26.975241 C62.531929,27.3064288 62.1339923,26.2300686 61.6531522,25.3524211 C61.4210225,24.9218771 61.1225701,24.5244518 60.7743755,24.1767047 C60.044825,23.4977698 59.0997255,23.2162602 58.1214646,23.2162602 L56.5462987,23.2162602 L61.3546998,31.4959536 L66.0801973,31.4959536 C67.6885246,31.4959536 69.0647221,30.4195935 69.4129167,28.8630111 L69.4460781,28.6808579 L69.4129167,28.515264 Z" id="Shape" fill="#FFF8EF"></path>
                    <path d="M58.4862398,39.7425282 L62.4656062,39.7425282 L62.4656062,42.3920301 L58.4862398,42.3920301 L58.4862398,39.7425282 Z M31.9571307,38.4177773 L35.9364971,38.4177773 L35.9364971,41.0672792 L31.9571307,41.0672792 L31.9571307,38.4177773 Z M29.3042198,66.2375471 C27.7124732,66.2375471 26.9165999,66.7674474 25.9880811,67.2973478 C25.1922079,67.8272482 24.3963346,68.3571486 23.0698791,68.6220988 C27.5798277,70.4767501 32.3550673,71.5365508 37.2629525,71.5365508 C42.1708377,71.5365508 46.9460774,70.4767501 51.4560259,68.7545739 C50.1295705,68.4896237 49.2010516,67.8272482 48.5378239,67.4298229 C47.4766595,66.7674474 46.8134318,66.2375471 45.2216853,66.2375471 C43.6299387,66.2375471 42.8340654,66.7674474 42.0381922,67.2973478 C40.9770278,67.9597233 39.6505723,68.8870489 37.2629525,68.8870489 C34.8753327,68.8870489 33.5488772,67.9597233 32.6203584,67.2973478 C31.5591941,66.7674474 30.8959663,66.2375471 29.3042198,66.2375471 Z M61.1391508,66.2375471 C54.3742279,71.2716006 46.0175585,74.1860527 37.2629525,74.1860527 C28.5083465,74.1860527 20.1516771,71.2716006 13.3867543,66.2375471 L13.3867543,66.2375471 L13.3867543,66.2375471 C8.213578,62.2632942 3.83627499,57.0967656 1.05071853,50.8704361 C0.918072983,50.4730109 0.918072983,49.9431105 1.18336407,49.5456852 C1.31600962,49.280735 1.8465918,49.0157848 2.24452844,49.0157848 L72.2813766,49.0157848 C72.6793132,49.0157848 73.2098954,49.280735 73.342541,49.6781603 C73.6078321,50.0755856 73.6078321,50.4730109 73.4751865,51.0029112 C70.68963,57.0967656 66.4449726,62.2632942 61.1391508,66.2375471 L61.1391508,66.2375471 L61.1391508,66.2375471 Z M37.2629525,60.9385433 C34.3447505,60.9385433 32.8856495,60.1436927 31.5591941,59.4813173 C30.3653841,58.8189418 29.3042198,58.2890414 27.0492455,58.2890414 C24.7942712,58.2890414 23.7331069,58.8189418 22.5392969,59.4813173 C21.2128415,60.1436927 19.7537405,60.9385433 16.8355385,60.9385433 C13.9173365,60.9385433 12.4582355,60.1436927 11.13178,59.4813173 C10.4685523,59.083892 9.80532455,58.8189418 9.00945127,58.5539916 C10.6011978,60.4086429 12.4582355,62.1308191 14.3152731,63.5880452 C16.0396652,63.8529954 17.1008296,64.5153708 18.0293484,65.0452712 C18.9578672,65.7076467 19.7537405,66.105072 21.345487,66.105072 C22.9372336,66.105072 23.6004613,65.5751716 24.5289801,65.0452712 C25.5901445,64.3828957 26.9165999,63.4555701 29.3042198,63.4555701 C31.6918396,63.4555701 33.0182951,64.3828957 33.9468139,65.0452712 C34.8753327,65.7076467 35.5385604,66.105072 37.130307,66.105072 C38.7220535,66.105072 39.5179268,65.5751716 40.3138001,65.0452712 C41.3749644,64.3828957 42.7014199,63.4555701 45.0890397,63.4555701 C47.4766595,63.4555701 48.803115,64.3828957 49.8642794,65.0452712 C50.7927982,65.7076467 51.5886715,66.105072 53.180418,66.105072 C54.7721646,66.105072 55.5680378,65.5751716 56.3639111,65.0452712 C57.2924299,64.5153708 58.3535943,63.7205203 60.0779864,63.5880452 C62.0676696,62.1308191 63.7920617,60.4086429 65.3838082,58.5539916 C64.5879349,58.8189418 63.9247072,59.083892 63.2614795,59.4813173 C61.935024,60.1436927 60.475923,60.9385433 57.557721,60.9385433 C54.639519,60.9385433 53.180418,60.1436927 51.8539625,59.4813173 C50.6601526,58.8189418 49.5989883,58.2890414 47.344014,58.2890414 C45.0890397,58.2890414 44.0278754,58.8189418 42.8340654,59.4813173 C41.6402555,60.1436927 40.1811545,60.9385433 37.2629525,60.9385433 Z M16.968184,58.2890414 C19.2231583,58.2890414 20.2843227,57.759141 21.4781326,57.0967656 C22.804588,56.4343901 24.263689,55.6395395 27.181891,55.6395395 C30.100093,55.6395395 31.5591941,56.4343901 32.8856495,57.0967656 C34.0794594,57.759141 35.1406238,58.2890414 37.3955981,58.2890414 C39.6505723,58.2890414 40.7117367,57.759141 41.9055466,57.0967656 C43.2320021,56.4343901 44.6911031,55.6395395 47.6093051,55.6395395 C50.5275071,55.6395395 51.9866081,56.4343901 53.3130636,57.0967656 C54.5068735,57.759141 55.5680378,58.2890414 57.8230121,58.2890414 C60.0779864,58.2890414 61.1391508,57.759141 62.3329607,57.0967656 C63.6594161,56.4343901 65.1185171,55.6395395 68.0367191,55.6395395 C68.965238,54.3147886 69.7611112,52.9900377 70.424339,51.6652867 L4.36685717,51.6652867 C5.16273045,52.9900377 5.95860372,54.3147886 6.754477,55.6395395 C9.54003346,55.6395395 11.13178,56.4343901 12.4582355,57.0967656 C13.6520454,57.759141 14.7132097,58.2890414 16.968184,58.2890414 Z M50.262216,20.4011645 C50.5275071,20.7985898 50.5275071,21.1960151 50.5275071,21.5934403 L49.7316338,23.8455169 L55.3027467,23.8455169 L49.3336972,13.5124596 L46.2828496,19.8712641 L49.2010516,19.8712641 C49.5989883,19.8712641 49.9969249,20.0037392 50.262216,20.4011645 Z M66.3786498,30.4692716 C67.6719439,30.4692716 68.8160117,29.5750648 69.0481414,28.3165514 C69.3631746,26.6440533 68.0698805,25.1702679 66.4449726,25.1702679 C65.7817449,25.1702679 64.9858716,25.4352181 64.5879349,25.9651184 C64.1899983,26.3625437 63.7920617,26.4950188 63.2614795,26.3625437 C62.8635428,26.2300686 62.4656062,25.8326434 62.3329607,25.4352181 C61.8023785,23.7130418 60.2106319,22.520766 58.4862398,22.520766 L57.557721,22.520766 L62.2003151,30.4692716 L66.3786498,30.4692716 L66.3786498,30.4692716 Z M44.6911031,43.7167811 L66.7102637,43.7167811 L56.7618477,26.4950188 L47.8745962,26.4950188 C47.4766595,26.4950188 47.0787229,26.3625437 46.8134318,25.9651184 C46.5481407,25.5676932 46.5481407,25.1702679 46.5481407,24.7728426 L47.344014,22.520766 L45.0890397,22.520766 L40.048509,33.2512486 L42.966711,39.7425282 L55.8333289,39.7425282 L55.8333289,42.3920301 L44.1605209,42.3920301 L44.6911031,43.7167811 Z M36.5831441,15.9632488 C37.1137263,15.7479768 37.5945664,15.4167891 37.9593416,14.986245 C39.1199902,13.6283753 38.5396659,11.558452 36.914758,10.9126359 C36.5997248,10.7967202 36.2681109,10.7304826 35.9364971,10.7304826 C34.8753327,10.7304826 33.9468139,11.3928581 33.5488772,12.3201838 C33.4162317,12.717609 33.0182951,12.9825592 32.6203584,13.1150343 C32.2224218,13.2475094 31.6918396,13.1150343 31.4265485,12.717609 L31.1612574,12.4526588 C31.0286119,12.3201838 30.8959663,12.1877087 30.8959663,12.1877087 C30.8959663,12.1877087 30.8959663,12.1877087 30.7633208,12.1877087 L30.3653841,12.1877087 L31.0286119,13.6449347 L32.2224218,16.1619615 L35.9364971,16.1619615 C36.1520461,16.1122833 36.3675951,16.0460458 36.5831441,15.9632488 Z M19.2231583,14.5722604 L23.9983979,14.5722604 C24.3963346,14.5722604 24.7942712,14.7047354 25.0595623,15.1021607 C25.3248534,15.499586 25.3248534,15.8970113 25.3248534,16.2944366 L24.5289801,18.5465132 L30.3653841,18.5465132 L23.9983979,4.5041532 L19.2231583,14.5722604 Z M20.0190316,31.4462755 C19.8532246,34.6256777 17.1505716,37.0930264 13.9670785,37.0930264 L13.6686261,37.0930264 C13.5359805,37.0930264 13.5359805,37.0930264 13.403335,37.0930264 L7.55035027,37.0930264 L6.754477,38.4177773 L29.3042198,38.4177773 L29.3042198,41.0672792 L5.29537599,41.0672792 L3.70362944,43.7167811 L4.10156608,43.7167811 L41.9055466,43.7167811 L31.6918396,21.1960151 L22.6719425,21.1960151 C22.2740058,21.1960151 21.8760692,21.06354 21.6107781,20.6661147 C21.345487,20.2686894 21.345487,19.8712641 21.345487,19.4738388 L22.1413603,17.2217622 L17.8967028,17.2217622 L14.1826276,25.1702679 C17.4656048,25.1702679 20.1848385,27.9853636 20.0190316,31.4462755 Z M5.01350421,34.079218 C5.44460223,34.2448118 5.94202303,34.3110494 6.33995967,34.3607275 C8.74416018,34.6919153 11.2312642,34.4435245 13.6520454,34.4435245 C14.1826276,34.4435245 14.6800484,34.4269651 15.1774692,34.2448118 C16.0894073,33.9136241 16.7692157,33.1684517 17.0345068,32.241126 C17.5816697,30.270559 16.2054721,28.0350418 14.1328855,27.8363292 C13.021979,27.7204134 12.2592671,28.1675169 11.6623622,28.6146203 C11.3970711,28.8795705 10.9991345,29.0120456 10.6011978,28.8795705 C10.2032612,28.7470954 9.93797009,28.6146203 9.672679,28.3496701 C9.27474237,27.1573943 8.08093245,26.4950188 6.754477,26.4950188 C4.26737301,26.4950188 2.17820567,28.9623675 2.95749825,31.4131567 C3.12330518,31.9264977 3.28911211,32.3570417 3.60414528,32.7875858 C3.86943638,33.1684517 4.16788885,33.5327582 4.53266411,33.8142678 C4.68189034,33.9301835 4.84769728,34.0129804 5.01350421,34.079218 Z M32.0897762,9.67068187 C33.3333282,8.42872786 34.9250748,7.73323362 36.6660476,7.99818381 C39.2028936,8.3790497 41.1759961,10.5483294 41.2423189,13.1150343 C41.3086417,16.0957239 38.9044411,18.5465132 35.9364971,18.5465132 L33.2835861,18.5465132 L38.589408,30.0718464 L48.0072417,10.0681072 C48.2725328,9.67068187 48.6704695,9.40573168 49.2010516,9.27325659 C49.7316338,9.27325659 50.1295705,9.53820678 50.3948615,9.93563206 L56.09862,19.8712641 L58.4862398,19.8712641 C60.8738597,19.8712641 62.9961884,21.06354 64.1899983,23.0506664 C64.6210963,22.8022756 65.1019364,22.6532411 65.6325186,22.5704442 C68.7662696,22.1564595 71.7010523,24.3754173 71.8668593,27.5382602 C72.0326662,30.5851874 69.5787236,33.1187735 66.5610374,33.1187735 L63.9081265,33.1187735 L70.0098216,43.7167811 L73.0772499,43.7167811 L73.0772499,46.3662829 L69.0978835,46.3662829 L43.8952298,46.3662829 L4.10156608,46.3662829 L1.44865517,46.3662829 C0.918072983,46.3662829 0.520136346,46.1013328 0.254845255,45.7039075 C-0.0104458367,45.3064822 -0.0104458367,44.7765818 0.254845255,44.3791565 L4.63214826,36.6956011 C1.97923735,35.9007505 0.122199709,33.3837237 0.122199709,30.4692716 C0.122199709,26.759969 3.04040172,23.8455169 6.754477,23.8455169 C8.34622355,23.8455169 9.93797009,24.5078924 11.13178,25.4352181 L22.804588,0.662375471 C23.0698791,0.264950188 23.6004613,0 23.9983979,0 C24.5289801,0 24.9269168,0.264950188 25.1922079,0.794850565 L29.0389287,9.27325659 L30.6306752,9.27325659 C31.293903,9.27325659 31.6918396,9.40573168 32.0897762,9.67068187 Z" id="Shape" fill="#42210B"></path>
                </g>
            </g>
        </g>
    </g>
</svg>